<svg width="938" height="225" xmlns="http://www.w3.org/2000/svg" xmlns:xlink="http://www.w3.org/1999/xlink" xml:space="preserve" overflow="hidden"><defs><clipPath id="clip0"><rect x="1995" y="823" width="431" height="55"/></clipPath><clipPath id="clip1"><rect x="1995" y="823" width="431" height="55"/></clipPath></defs><g transform="translate(-1792 -785)"><path d="M2104.5 953.216 2100.11 953.376C2096.16 953.562 2093.32 954.254 2091.59 955.45 2089.86 956.647 2089 958.522 2089 961.075 2089 965.383 2091.06 967.538 2095.2 967.538 2098.07 967.538 2100.34 966.547 2102 964.566 2103.66 962.584 2104.5 960.038 2104.5 956.926ZM2238.49 938.257C2230.71 938.257 2226.81 943.057 2226.81 952.658 2226.81 957.365 2227.77 960.968 2229.67 963.468 2231.58 965.968 2234.34 967.218 2237.97 967.218 2245.8 967.218 2249.72 962.365 2249.72 952.658 2249.72 943.057 2245.98 938.257 2238.49 938.257ZM2163.89 937.818C2161.18 937.818 2159.02 938.776 2157.41 940.69 2155.8 942.605 2154.93 945.251 2154.79 948.629L2172.75 948.629C2172.48 945.012 2171.65 942.306 2170.25 940.511 2168.86 938.715 2166.73 937.818 2163.89 937.818ZM2489.48 932.313 2499.47 932.313 2509.01 947.272 2518.47 932.313 2528.58 932.313 2514.24 952.06 2529.46 973.202 2519.36 973.202 2509.01 957.604 2498.58 973.202 2488.76 973.202 2503.78 952.179ZM2321 931.475C2327.47 931.475 2331.55 934.387 2333.24 940.211L2333.52 940.211C2334.97 937.206 2336.74 934.999 2338.82 933.589 2340.9 932.18 2343.59 931.475 2346.89 931.475 2351.32 931.475 2354.63 932.805 2356.83 935.464 2359.03 938.124 2360.14 942.286 2360.14 947.951L2360.14 973.202 2350.84 973.202 2350.84 950.344C2350.84 946.195 2350.23 943.217 2349 941.408 2347.78 939.6 2345.84 938.696 2343.19 938.696 2340.37 938.696 2338.15 939.819 2336.52 942.067 2334.9 944.314 2334.09 947.405 2334.09 951.341L2334.09 973.202 2324.79 973.202 2324.79 950.344C2324.79 946.115 2324.19 943.117 2323 941.348 2321.8 939.58 2319.9 938.696 2317.3 938.696 2314.46 938.696 2312.2 939.839 2310.54 942.126 2308.87 944.414 2308.04 947.565 2308.04 951.581L2308.04 973.202 2298.78 973.202 2298.78 941.728C2298.78 938.562 2298.66 935.425 2298.42 932.313L2307.24 932.313C2307.53 936.302 2307.68 938.935 2307.68 940.211L2307.84 940.211C2309.4 937.073 2311.19 934.833 2313.23 933.49 2315.27 932.147 2317.86 931.475 2321 931.475ZM2288.03 931.475C2289.29 931.475 2290.34 931.648 2291.17 931.994L2291.17 939.534C2289.8 939.241 2288.4 939.095 2286.95 939.095 2283.94 939.095 2281.54 940.404 2279.74 943.024 2277.94 945.643 2277.04 949.174 2277.04 953.615L2277.04 973.202 2267.78 973.202 2267.78 942.405C2267.78 938.097 2267.69 934.733 2267.5 932.313L2276.32 932.313C2276.59 935.504 2276.72 938.589 2276.72 941.568L2276.88 941.568C2278.17 937.791 2279.66 935.165 2281.35 933.689 2283.04 932.213 2285.27 931.475 2288.03 931.475ZM2238.29 931.475C2245.18 931.475 2250.43 933.29 2254.03 936.92 2257.62 940.551 2259.42 945.796 2259.42 952.658 2259.42 959.333 2257.55 964.559 2253.81 968.335 2250.06 972.112 2244.81 974 2238.05 974 2231.5 974 2226.37 972.085 2222.67 968.256 2218.96 964.426 2217.11 959.227 2217.11 952.658 2217.11 945.983 2218.97 940.783 2222.69 937.06 2226.4 933.337 2231.6 931.475 2238.29 931.475ZM2164.21 931.475C2170.09 931.475 2174.59 933.383 2177.7 937.2 2180.81 941.016 2182.37 946.408 2182.37 953.376L2182.37 954.493 2154.71 954.493C2154.85 958.668 2155.78 961.879 2157.51 964.127 2159.24 966.374 2161.61 967.498 2164.61 967.498 2166.65 967.498 2168.47 966.992 2170.07 965.982 2171.67 964.971 2173.11 963.269 2174.4 960.876L2181.68 964.346C2180.1 966.872 2178.52 968.787 2176.93 970.09 2175.35 971.394 2173.5 972.371 2171.4 973.023 2169.29 973.674 2166.79 974 2163.89 974 2157.85 974 2153.2 972.118 2149.92 968.355 2146.65 964.592 2145.01 959.306 2145.01 952.498 2145.01 945.637 2146.73 940.418 2150.16 936.841 2153.6 933.264 2158.28 931.475 2164.21 931.475ZM2097.77 931.475C2103.27 931.475 2107.31 932.765 2109.87 935.345 2112.43 937.925 2113.71 941.927 2113.71 947.352L2113.71 973.202 2104.78 973.202 2104.46 966.74C2103.09 969.399 2101.44 971.274 2099.5 972.364 2097.57 973.455 2095.2 974 2092.38 974 2088.14 974 2084.9 972.909 2082.66 970.729 2080.41 968.548 2079.29 965.516 2079.29 961.634 2079.29 957.378 2080.82 954.121 2083.88 951.86 2086.94 949.599 2091.45 948.376 2097.41 948.19L2104.46 947.951 2104.46 946.674C2104.46 943.509 2103.94 941.215 2102.91 939.793 2101.87 938.37 2100.12 937.658 2097.65 937.658 2095.48 937.658 2093.87 938.064 2092.84 938.875 2091.81 939.686 2091.1 940.943 2090.73 942.645L2081.79 941.249C2082.6 937.765 2084.28 935.265 2086.84 933.749 2089.41 932.233 2093.05 931.475 2097.77 931.475ZM2059.94 931.475C2069.31 931.475 2074.68 935.717 2076.05 944.201L2066.79 944.959C2066.49 942.698 2065.73 941.003 2064.51 939.872 2063.29 938.742 2061.8 938.177 2060.02 938.177 2056.99 938.177 2054.77 939.361 2053.36 941.728 2051.95 944.094 2051.25 947.711 2051.25 952.578 2051.25 957.525 2051.98 961.221 2053.44 963.668 2054.9 966.114 2056.99 967.338 2059.7 967.338 2063.75 967.338 2066.17 964.825 2066.95 959.798L2075.97 960.756C2074.52 969.585 2069.07 974 2059.62 974 2053.96 974 2049.59 972.165 2046.52 968.495 2043.44 964.825 2041.91 959.652 2041.91 952.977 2041.91 946.115 2043.48 940.817 2046.62 937.08 2049.76 933.344 2054.2 931.475 2059.94 931.475ZM2621.44 923.417C2617.68 923.417 2615.02 925.073 2613.47 928.384 2611.91 931.695 2611.13 937.259 2611.13 945.078 2611.13 952.631 2611.92 958.123 2613.51 961.554 2615.09 964.984 2617.68 966.7 2621.28 966.7 2624.82 966.7 2627.4 964.958 2629.03 961.474 2630.65 957.99 2631.46 952.525 2631.46 945.078 2631.46 939.839 2631.13 935.651 2630.46 932.512 2629.78 929.374 2628.73 927.074 2627.29 925.611 2625.86 924.148 2623.91 923.417 2621.44 923.417ZM2694.81 916.995 2726.78 916.995 2726.78 924.494 2702.95 924.494 2701.98 940.052C2704.74 937.818 2708.35 936.701 2712.81 936.701 2718.12 936.701 2722.32 938.31 2725.39 941.528 2728.46 944.746 2730 949.134 2730 954.692 2730 960.703 2728.21 965.423 2724.63 968.854 2721.04 972.285 2716.08 974 2709.75 974 2704.49 974 2700.3 972.81 2697.17 970.43 2694.04 968.049 2692.06 964.532 2691.23 959.878L2700.49 959.04C2701.03 961.088 2701.69 962.604 2702.46 963.588 2703.24 964.572 2704.26 965.33 2705.52 965.862 2706.78 966.394 2708.33 966.66 2710.15 966.66 2713.51 966.66 2716.07 965.649 2717.84 963.628 2719.61 961.607 2720.5 958.695 2720.5 954.892 2720.5 951.567 2719.64 948.948 2717.92 947.033 2716.21 945.118 2713.8 944.161 2710.72 944.161 2708.97 944.161 2707.42 944.427 2706.05 944.959 2704.68 945.49 2703.28 946.461 2701.86 947.871L2693 947.871ZM2454.3 916.995 2485.94 916.995 2485.94 924.773 2464.08 924.773 2464.08 941.807 2485.02 941.807 2485.02 949.347 2464.08 949.347 2464.08 973.202 2454.3 973.202ZM2665.69 916.157C2671.49 916.157 2676.01 917.52 2679.24 920.246 2682.48 922.972 2684.09 926.821 2684.09 931.794 2684.09 934.135 2683.63 936.322 2682.7 938.357 2681.78 940.391 2680.44 942.399 2678.7 944.38 2676.95 946.361 2674.11 948.921 2670.16 952.06 2663.29 957.458 2659.01 961.939 2657.32 965.503L2684.98 965.503 2684.98 973.202 2646.81 973.202 2646.81 966.78C2648.16 963.695 2650.06 960.663 2652.53 957.684 2655 954.706 2658.3 951.514 2662.43 948.11 2667.4 944.014 2670.68 940.85 2672.28 938.616 2673.87 936.382 2674.67 934.215 2674.67 932.113 2674.67 929.401 2673.91 927.307 2672.38 925.831 2670.85 924.355 2668.69 923.617 2665.9 923.617 2660.53 923.617 2657.47 926.475 2656.72 932.193L2647.38 931.555C2647.94 926.715 2649.81 922.938 2652.99 920.226 2656.17 917.513 2660.41 916.157 2665.69 916.157ZM2621.44 916.157C2628.01 916.157 2632.88 918.524 2636.05 923.257 2639.22 927.991 2640.8 935.265 2640.8 945.078 2640.8 954.519 2639.16 961.7 2635.87 966.62 2632.58 971.54 2627.69 974 2621.2 974 2608.29 974 2601.83 964.359 2601.83 945.078 2601.83 938.403 2602.55 932.938 2603.99 928.683 2605.42 924.428 2607.53 921.276 2610.33 919.228 2613.12 917.181 2616.82 916.157 2621.44 916.157ZM2576.38 916.157C2582.17 916.157 2586.69 917.52 2589.92 920.246 2593.16 922.972 2594.77 926.821 2594.77 931.794 2594.77 934.135 2594.31 936.322 2593.38 938.357 2592.46 940.391 2591.12 942.399 2589.38 944.38 2587.63 946.361 2584.79 948.921 2580.84 952.06 2573.97 957.458 2569.69 961.939 2568 965.503L2595.66 965.503 2595.66 973.202 2557.49 973.202 2557.49 966.78C2558.84 963.695 2560.74 960.663 2563.21 957.684 2565.68 954.706 2568.98 951.514 2573.11 948.11 2578.08 944.014 2581.36 940.85 2582.96 938.616 2584.55 936.382 2585.35 934.215 2585.35 932.113 2585.35 929.401 2584.59 927.307 2583.06 925.831 2581.53 924.355 2579.37 923.617 2576.58 923.617 2571.21 923.617 2568.15 926.475 2567.4 932.193L2558.06 931.555C2558.62 926.715 2560.49 922.938 2563.67 920.226 2566.85 917.513 2571.09 916.157 2576.38 916.157ZM2418.6 916.157C2424.27 916.157 2428.92 917.267 2432.57 919.488 2436.22 921.709 2438.89 925.093 2440.58 929.64L2431.57 932.353C2429.47 926.715 2425.11 923.896 2418.48 923.896 2413.38 923.896 2409.51 925.698 2406.87 929.301 2404.22 932.905 2402.9 938.084 2402.9 944.839 2402.9 951.594 2404.32 956.86 2407.15 960.636 2409.98 964.413 2413.92 966.301 2418.97 966.301 2424.2 966.301 2428.56 964.652 2432.05 961.354L2432.05 951.461 2418.68 951.461 2418.68 944.32 2441.23 944.32 2441.23 964.825C2438.73 967.617 2435.5 969.844 2431.53 971.507 2427.55 973.169 2423.34 974 2418.89 974 2410.67 974 2404.3 971.44 2399.78 966.321 2395.26 961.201 2393 954.041 2393 944.839 2393 935.584 2395.21 928.49 2399.64 923.557 2404.07 918.624 2410.39 916.157 2418.6 916.157ZM2015.85 916.157C2021.22 916.157 2025.41 917.214 2028.43 919.328 2031.45 921.442 2033.53 924.76 2034.69 929.281L2025.47 930.917C2024.26 925.784 2021.03 923.218 2015.77 923.218 2013.06 923.218 2010.97 923.876 2009.51 925.192 2008.04 926.509 2007.31 928.337 2007.31 930.677 2007.31 932.3 2007.64 933.636 2008.3 934.687 2008.96 935.737 2009.94 936.648 2011.26 937.419 2012.57 938.19 2015.11 939.148 2018.87 940.291 2023.27 941.648 2026.41 942.838 2028.29 943.862 2030.17 944.885 2031.66 946.023 2032.76 947.272 2033.86 948.523 2034.69 949.972 2035.25 951.621 2035.82 953.269 2036.1 955.184 2036.1 957.365 2036.1 962.737 2034.37 966.852 2030.92 969.712 2027.48 972.57 2022.49 974 2015.97 974 2010.22 974 2005.71 972.763 2002.42 970.29 1999.13 967.817 1996.99 964.08 1996 959.08L2005.1 957.525C2006.41 963.615 2010.2 966.66 2016.45 966.66 2023.27 966.66 2026.68 963.748 2026.68 957.924 2026.68 956.248 2026.34 954.879 2025.67 953.815 2025 952.751 2024.07 951.86 2022.89 951.142 2021.71 950.424 2020.32 949.819 2018.73 949.327 2017.13 948.835 2015.42 948.323 2013.59 947.791 2009.19 946.541 2006 945.238 2004.03 943.881 2002.06 942.525 2000.54 940.823 1999.48 938.776 1998.42 936.728 1997.89 934.175 1997.89 931.116 1997.89 926.409 1999.48 922.739 2002.64 920.106 2005.81 917.473 2010.21 916.157 2015.85 916.157ZM2127.01 915.199 2136.27 915.199 2136.27 973.202 2127.01 973.202ZM2208.11 915C2210.9 915 2213.29 915.173 2215.27 915.519L2215.27 921.662C2214.09 921.369 2212.33 921.223 2210 921.223 2208.12 921.223 2206.77 921.735 2205.93 922.759 2205.1 923.783 2204.69 925.678 2204.69 928.443L2204.69 932.313 2213.62 932.313 2213.62 938.975 2204.69 938.975 2204.69 973.202 2195.43 973.202 2195.43 938.975 2188.18 938.975 2188.18 932.313 2195.43 932.313 2195.43 927.167C2195.43 923.018 2196.47 919.953 2198.57 917.972 2200.66 915.991 2203.84 915 2208.11 915Z" fill="#FFFFFF" fill-rule="evenodd"/><g clip-path="url(#clip0)"><g clip-path="url(#clip1)"><g><path d="M526.338 1.4107 510.755 1.4107 492.091 22.2527 492.091 1.4107 479.008 1.4107 479.073 52.716 492.091 52.716 492.091 33.2197 509.793 52.716 526.338 52.716 502.483 27.3852 526.338 1.4107ZM457.912 22.5095 445.983 21.1638C438.991 20.3934 437.262 18.6609 437.262 16.2881 437.262 13.6585 440.854 11.2856 447.842 11.2856 454.577 11.2856 458.104 13.7885 458.745 17.572L471.571 17.572C470.921 6.73171 461.82 0 448.548 0 432.773 0 424.819 6.28315 424.819 17.377 424.819 26.4198 430.079 30.6551 440.981 31.809L453.102 33.0897C457.721 33.6033 459.837 35.4008 459.837 37.7086 459.837 40.3383 456.759 42.7111 449.318 42.7111 440.724 42.7111 437.262 40.53 436.684 36.1679L424.114 36.1679C424.693 47.9704 432.387 53.9967 448.87 53.9967 463.939 53.9967 472.341 47.3918 472.341 37.4519 472.341 28.7926 467.339 23.5984 457.912 22.5095ZM377.041 52.716 418.341 52.716 418.341 41.6222 390.124 41.6222 390.124 32.3226 412.825 32.3226 412.825 21.1638 390.124 21.1638 390.124 12.5045 418.341 12.5045 418.341 1.4107 377.041 1.4107 377.041 52.716ZM346.259 1.4107 322.274 1.4107 322.274 52.716 346.259 52.716C364.666 52.716 369.731 45.8543 369.731 26.6766 369.731 8.65599 364.858 1.4107 346.259 1.4107ZM345.732 41.6254 335.331 41.6254 335.331 12.5045 345.732 12.5045C353.943 12.5045 356.378 14.7506 356.378 26.6766 356.391 37.5786 353.634 41.6254 345.732 41.6254ZM286.746 0C268.082 0 258.399 11.4774 258.399 26.9333 258.399 42.4543 268.082 53.9967 286.746 53.9967 305.472 53.9967 315.155 42.4543 315.155 26.9333 315.155 11.4774 305.472 0 286.746 0ZM286.746 42.4543C277.063 42.4543 271.739 36.5547 271.739 26.9333 271.739 17.507 277.063 11.5424 286.746 11.5424 296.498 11.5424 301.754 17.507 301.754 26.9333 301.754 36.5547 296.494 42.4543 286.746 42.4543ZM210.172 12.5045 226.717 12.5045 226.717 52.716 239.8 52.716 239.8 12.5045 256.283 12.5045 256.283 1.4107 210.172 1.4107 210.172 12.5045ZM191.127 33.0897C191.127 39.7597 187.022 42.4543 180.03 42.4543 173.234 42.4543 168.81 39.6329 168.81 33.0897L168.81 1.4107 155.727 1.4107 155.727 34.5654C155.727 49.3811 168.936 53.9967 180.03 53.9967 191.062 53.9967 204.207 49.3811 204.207 34.5654L204.207 1.4107 191.127 1.4107ZM117.439 1.4107 97.7512 52.716 111.283 52.716 114.719 43.0947 136.698 43.0947 140.079 52.716 154.056 52.716 134.127 1.4107ZM118.613 32.1926 125.799 12.082 132.866 32.1991ZM0.403058 52.7193 46.3451 24.1412 70.1775 24.1412C70.9459 24.1412 71.5687 24.7641 71.5687 25.5324 71.5687 25.5335 71.5687 25.5346 71.5687 25.5356 71.6074 26.021 71.3513 26.4822 70.9186 26.7058L48.3539 40.2342C46.888 41.1119 46.3744 42.8736 46.3744 44.1933L46.3516 52.7193 75.0272 52.7193 75.0272 3.1692C75.0298 2.19801 74.2448 1.40854 73.2736 1.40587 73.2469 1.40579 73.2206 1.40632 73.194 1.40745L45.8316 1.40745 0 29.862 0 52.7193Z" fill="#FFFFFF" transform="matrix(1.00287 0 0 1 1897.99 824)"/></g></g></g><g><g><g><path d="M1574.96 579.284 1443.64 579.284C1430.33 579.284 1419.54 568.494 1419.54 555.183L1419.54 434.679 1574.96 434.679Z" fill="#215F9A" fill-rule="evenodd" transform="matrix(1 0 0 1.00267 388.253 400.834)"/><path d="M1431.17 413.893 1562.49 413.893 1562.49 545.209 1431.17 545.209Z" fill="#4E95D9" transform="matrix(1 0 0 1.00267 388.253 400.834)"/><text fill="#FFFFFF" font-family="DengXian,DengXian_MSFontService,sans-serif" font-weight="700" font-size="128" transform="matrix(0.831111 0 0 0.833333 1856.31 918)">S</text><path d="M1408.25 427.441 1431.17 413.893 1431.17 544.955 1407.9 563.493C1408.02 518.142 1408.14 472.792 1408.25 427.441Z" fill="#A6CAEC" fill-rule="evenodd" transform="matrix(1 0 0 1.00267 388.253 400.834)"/><text fill="#FFFFFF" font-family="DengXian,DengXian_MSFontService,sans-serif" font-weight="700" font-size="32" transform="matrix(0.831111 0 0 0.833333 1861.85 972)">GFX</text></g></g></g></g></svg>