<svg width="2803" height="241" xmlns="http://www.w3.org/2000/svg" xmlns:xlink="http://www.w3.org/1999/xlink" xml:space="preserve" overflow="hidden"><defs><linearGradient x1="2029.62" y1="799.693" x2="2029.62" y2="910.693" gradientUnits="userSpaceOnUse" spreadMethod="reflect" id="fill0"><stop offset="0" stop-color="#F0F8FD"/><stop offset="0.35" stop-color="#74C4E9"/><stop offset="0.76" stop-color="#4E95D9"/><stop offset="1" stop-color="#74C4E9"/></linearGradient><linearGradient x1="2066.12" y1="844.69" x2="2066.12" y2="872.69" gradientUnits="userSpaceOnUse" spreadMethod="reflect" id="fill1"><stop offset="0" stop-color="#F0F8FD"/><stop offset="0.55" stop-color="#A6A6A6"/><stop offset="1" stop-color="#FFFFFF"/></linearGradient></defs><g transform="translate(-180 -730)"><path d="M313.582 895.692C309.521 895.435 305.537 894.554 301.752 893.072L230.173 865.749C224.136 863.471 222.627 859.382 222.627 851.768L222.627 774.72C222.627 767.099 224.269 763.01 230.295 760.739L301.752 733.311C305.537 731.828 309.521 730.945 313.582 730.692 317.633 730.945 321.617 731.828 325.401 733.311L396.97 760.732C402.984 763.01 404.627 767.099 404.627 774.713L404.627 851.761C404.627 859.382 402.984 863.471 396.97 865.742L325.401 893.177C321.617 894.621 317.622 895.469 313.582 895.692Z" fill="#005BAC" fill-rule="evenodd"/><path d="M395.579 812.647 395.579 850.565C395.935 853.365 394.246 856.02 391.568 856.892L333.224 874.304C330.369 875.428 327.135 874.02 326.013 871.161 325.646 870.224 325.535 869.205 325.702 868.211L325.702 757.11C325.702 751.859 329.224 749.835 333.224 751.018L391.557 768.582C394.202 769.408 395.891 771.987 395.579 774.735Z" fill="#FFFFFF" fill-rule="evenodd"/><path d="M299.612 791.603C299.854 788.597 297.632 785.961 294.64 785.7L294.64 785.7C291.108 786.066 288.479 789.136 288.655 792.692 288.369 795.705 290.558 798.386 293.551 798.7L293.551 798.7C297.159 798.384 299.854 795.23 299.612 791.603Z" fill="#FFFFFF" fill-rule="evenodd"/><path d="M275.608 793.795C275.608 790.908 273.772 788.695 271.476 788.695 268.436 789.16 266.319 791.75 266.657 794.596 266.657 797.534 268.582 799.696 270.823 799.696 273.772 799.107 275.811 796.596 275.608 793.795Z" fill="#FFFFFF" fill-rule="evenodd"/><path d="M262.616 788.642C262.616 786.011 261.221 783.696 259.016 783.696 256.822 783.696 254.616 786.563 254.616 789.721 254.616 792.881 256.296 794.696 258.182 794.696 260.685 794.696 262.616 791.828 262.616 788.642Z" fill="#FFFFFF" fill-rule="evenodd"/><path d="M250.608 797.469C250.608 794.649 249.079 792.693 247.364 792.693 245.183 792.693 243.608 795.301 243.608 798.128 243.608 800.954 245.078 802.693 246.898 802.693 248.718 802.693 250.608 800.495 250.608 797.469Z" fill="#FFFFFF" fill-rule="evenodd"/><path d="M289.601 775.535C289.868 772.632 288.011 770.029 285.442 769.677L285.442 769.677C281.927 770.291 279.414 773.823 279.648 777.82 279.403 780.728 281.26 783.328 283.829 783.677L284.063 783.677C287.477 782.944 289.868 779.441 289.601 775.535Z" fill="#FFFFFF" fill-rule="evenodd"/><path d="M275.622 768.168C275.622 765.751 274.172 763.696 271.901 763.696 268.697 764.411 266.493 767.104 266.628 770.125 266.628 773.632 268.82 774.696 270.293 774.696 273.16 774.696 275.622 771.47 275.622 768.168Z" fill="#FFFFFF" fill-rule="evenodd"/><path d="M262.616 768.194C262.616 765.595 261.176 763.696 259.347 763.696 256.924 763.696 254.616 766.743 254.616 770.171 254.616 772.98 256.136 774.696 257.907 774.696 260.57 774.693 262.616 771.261 262.616 768.194Z" fill="#FFFFFF" fill-rule="evenodd"/><path d="M250.608 773.942C250.608 770.961 248.974 769.692 247.668 769.692 245.533 769.692 243.608 772.416 243.608 775.444 243.608 777.453 244.553 779.692 246.595 779.692 248.636 779.692 250.608 776.97 250.608 773.942Z" fill="#FFFFFF" fill-rule="evenodd"/><path d="M241.596 784.138C241.596 781.442 240.337 779.692 238.992 779.692 237.193 779.692 235.597 782.226 235.597 785.271 235.597 787.805 236.773 789.692 238.201 789.692 239.628 789.692 241.596 787.211 241.596 784.138Z" fill="#FFFFFF" fill-rule="evenodd"/><path d="M235.664 798.354C235.664 796.021 234.754 793.693 233.324 793.693 231.904 793.693 230.664 795.853 230.664 799.031 230.664 801.053 231.454 803.693 232.994 803.693 234.544 803.693 235.664 801.612 235.664 798.354Z" fill="#FFFFFF" fill-rule="evenodd"/><path d="M291.722 812.669C291.172 815.9 293.142 819.004 296.124 819.602 299.117 820.199 301.978 818.064 302.528 814.833 302.539 814.81 302.539 814.789 302.539 814.767 302.66 814.074 302.66 813.362 302.539 812.669 303.056 809.431 301.054 806.351 298.06 805.791 295.1 805.233 292.272 807.365 291.722 810.571 291.601 811.263 291.601 811.976 291.722 812.669Z" fill="#FFFFFF" fill-rule="evenodd"/><path d="M272.776 812.682C272.135 815.228 273.552 817.848 275.959 818.533 278.355 819.219 280.829 817.71 281.47 815.164 281.672 814.351 281.672 813.496 281.47 812.682 281.47 809.218 279.592 806.698 277.072 806.698 274.35 807.131 272.45 809.782 272.776 812.682Z" fill="#FFFFFF" fill-rule="evenodd"/><path d="M254.616 812.222C254.616 815.719 256.707 817.696 258.616 817.696 261.164 817.696 262.616 814.818 262.616 812.222 262.616 809.626 261.164 806.696 258.616 806.696 256.707 806.696 254.616 808.753 254.616 812.222Z" fill="#FFFFFF" fill-rule="evenodd"/><path d="M240.664 812.617C240.664 815.664 241.874 817.693 243.164 817.693 244.454 817.693 245.664 815.584 245.664 812.617 245.664 809.649 244.534 807.693 243.164 807.693 241.784 807.693 240.664 809.698 240.664 812.617Z" fill="#FFFFFF" fill-rule="evenodd"/><path d="M229.664 812.677C229.664 815.509 230.894 817.693 232.074 817.693 233.254 817.693 234.664 815.369 234.664 812.677 234.664 809.986 233.594 807.693 232.074 807.693 230.554 807.693 229.664 809.787 229.664 812.677Z" fill="#FFFFFF" fill-rule="evenodd"/><path d="M299.612 833.798C299.854 836.803 297.633 839.439 294.641 839.701L294.641 839.701C291.099 839.331 288.47 836.246 288.657 832.681 288.36 829.678 290.549 827.003 293.541 826.704 293.552 826.703 293.563 826.702 293.585 826.7L293.585 826.7C297.17 827.032 299.854 830.18 299.612 833.798Z" fill="#FFFFFF" fill-rule="evenodd"/><path d="M275.612 831.551C275.612 834.464 273.767 836.696 271.473 836.696 268.469 836.229 266.366 833.675 266.647 830.84 266.647 827.853 268.57 825.695 270.809 825.695 273.734 826.265 275.781 828.756 275.612 831.551Z" fill="#FFFFFF" fill-rule="evenodd"/><path d="M262.616 837.271C262.616 840.142 261.221 842.668 259.016 842.668 256.822 842.668 254.616 839.424 254.616 836.064 254.616 832.705 256.296 830.668 258.182 830.668 260.685 830.668 262.616 833.856 262.616 837.271Z" fill="#FFFFFF" fill-rule="evenodd"/><path d="M250.608 829.006C250.608 831.773 249.079 833.692 247.364 833.692 245.183 833.692 243.608 831.132 243.608 828.359 243.608 825.586 245.078 823.692 246.898 823.692 248.718 823.692 250.608 825.932 250.608 829.006Z" fill="#FFFFFF" fill-rule="evenodd"/><path d="M289.588 850.069C289.921 852.826 288.066 855.347 285.433 855.7 285.433 855.7 285.433 855.7 285.433 855.7L285.433 855.7C281.933 855.13 279.423 851.85 279.645 848.14 279.423 845.435 281.278 843.027 283.855 842.7L284.055 842.7C287.399 843.371 289.755 846.512 289.588 850.069Z" fill="#FFFFFF" fill-rule="evenodd"/><path d="M275.622 857.789C275.622 860.427 274.172 862.668 271.901 862.668 268.697 861.88 266.493 858.948 266.628 855.654 266.628 851.856 268.82 850.668 270.293 850.668 273.16 850.682 275.622 854.191 275.622 857.789Z" fill="#FFFFFF" fill-rule="evenodd"/><path d="M262.616 857.731C262.616 860.567 261.176 862.668 259.347 862.668 256.924 862.668 254.616 859.323 254.616 855.604 254.616 852.513 256.136 850.668 257.907 850.668 260.57 850.668 262.616 854.412 262.616 857.731Z" fill="#FFFFFF" fill-rule="evenodd"/><path d="M250.608 851.427C250.608 854.42 248.974 855.692 247.668 855.692 245.533 855.692 243.608 852.95 243.608 849.931 243.608 847.926 244.553 845.692 246.595 845.692 248.636 845.692 250.608 848.51 250.608 851.427Z" fill="#FFFFFF" fill-rule="evenodd"/><path d="M241.596 841.247C241.596 843.941 240.337 845.692 238.992 845.692 237.193 845.692 235.597 843.159 235.597 840.113 235.597 837.068 236.773 835.692 238.201 835.692 239.628 835.692 241.596 838.201 241.596 841.247Z" fill="#FFFFFF" fill-rule="evenodd"/><path d="M235.664 828.016C235.664 830.367 234.754 832.692 233.324 832.692 231.904 832.692 230.664 830.535 230.664 827.37 230.664 825.325 231.454 822.692 232.994 822.692 234.544 822.692 235.664 824.792 235.664 828.016Z" fill="#FFFFFF" fill-rule="evenodd"/><path d="M456.184 925.064C456.754 925.064 457.164 924.416 457.164 923.432 457.204 922.52 456.684 921.728 455.994 921.668 455.994 921.668 455.994 921.668 455.994 921.668L454.664 921.668 454.664 927.668 455.194 927.668 455.194 922.316 455.914 922.316C456.324 922.268 456.674 922.664 456.714 923.216 456.714 923.216 456.714 923.216 456.714 923.216L456.714 923.216 456.714 923.42C456.714 924.152 456.514 924.56 455.894 924.56L455.404 924.56 457.104 927.668 457.664 927.668Z" fill="#215F9A" fill-rule="evenodd"/><path d="M456.622 931.193C454.135 931.193 452.121 928.959 452.121 926.193 452.121 923.437 454.135 921.193 456.622 921.193 459.108 921.193 461.122 923.437 461.122 926.193L461.122 926.193C461.111 928.948 459.097 931.17 456.622 931.193ZM456.622 921.837C454.451 921.826 452.684 923.77 452.661 926.181 452.65 928.593 454.405 930.559 456.566 930.57 458.737 930.592 460.515 928.648 460.526 926.237 460.526 926.237 460.526 926.237 460.526 926.237L460.526 926.237C460.537 923.826 458.793 921.859 456.622 921.837Z" stroke="#4E95D9" stroke-width="0.851706" stroke-miterlimit="8" fill="#215F9A" fill-rule="evenodd"/><path d="M445.634 924.826 445.634 919.692 421.232 919.692C420.896 919.692 420.635 919.97 420.635 920.314L420.635 969.082C420.635 969.426 420.896 969.693 421.232 969.693L445.634 969.693 445.634 964.559 426.124 964.559 426.124 945.67 442.319 945.67 442.319 940.381 426.124 940.381 426.124 924.826Z" fill="#215F9A" fill-rule="evenodd"/><path d="M330.371 919.225 322.704 961.566 314.56 919.225C314.504 918.926 314.249 918.704 313.937 918.693L309.071 918.693C308.771 918.704 308.515 918.926 308.471 919.225L300.326 961.566 292.66 919.225C292.615 918.915 292.349 918.693 292.037 918.693L286.626 918.693 297.093 969.693 303.16 969.693C303.471 969.704 303.737 969.482 303.782 969.172L311.615 927.196 319.449 969.172C319.504 969.482 319.771 969.704 320.082 969.693L326.127 969.693 336.627 918.704 330.971 918.704C330.671 918.704 330.415 918.926 330.371 919.225Z" fill="#215F9A" fill-rule="evenodd"/><path d="M399.201 947.541C405.552 947.541 410.29 941.964 410.29 933.816 410.849 926.033 404.927 919.28 397.074 918.726 396.394 918.682 395.725 918.682 395.045 918.726L382.267 918.726C381.916 918.76 381.642 919.037 381.631 919.38L381.631 969.693 387.488 969.693 387.488 924.225 395.824 924.225C401.571 924.225 404.784 927.84 404.784 933.816 404.784 939.781 402.689 943.506 395.604 943.506L389.934 943.506 409.226 969.693 415.631 969.693Z" fill="#215F9A" fill-rule="evenodd"/><path d="M266.616 918.693 274.616 918.693 274.616 969.694 266.616 969.694Z" fill="#005BAC" fill-rule="evenodd"/><path d="M252.667 969.693 233.965 944.657 233.965 969.693 225.623 969.693 225.623 918.7 239.874 918.7C243.932 918.579 247.902 919.931 251.007 922.504 254.304 925.564 256.075 929.877 255.873 934.323 255.873 941.641 252.05 947.174 246.489 948.482L262.623 969.693ZM233.965 942.118 240.243 942.118C242.396 942.428 244.56 941.719 246.096 940.2 247.274 938.503 247.801 936.441 247.588 934.401 248.137 930.742 245.569 927.349 241.847 926.806 241.398 926.739 240.939 926.717 240.479 926.739L234.088 926.739Z" fill="#005BAC" fill-rule="evenodd"/><path d="M204.721 970.671C191.499 970.671 180.624 959.01 180.624 944.682 180.624 930.355 191.488 918.694 204.721 918.694 209.471 918.749 214.098 920.276 217.931 923.064L218.513 923.506 218.513 935.046 218.334 935.046C215.752 929.945 210.476 926.726 204.721 926.726 200.429 926.77 196.394 928.684 193.667 931.959 187.42 939.283 187.42 949.993 193.667 957.317 196.394 960.581 200.429 962.495 204.721 962.55 210.488 962.705 215.841 959.541 218.434 954.441L218.624 954.441 218.624 966.013 218.043 966.434C214.176 969.233 209.504 970.727 204.721 970.693Z" fill="#005BAC" fill-rule="evenodd"/><path d="M378.622 969.694 357.618 917.694 354.626 917.694 333.622 969.694 339.663 969.694 356.201 927.817 364.975 949.801 350.958 949.801 349.248 955.034 367.158 955.034 372.592 969.683Z" fill="#215F9A" fill-rule="evenodd"/><path d="M1392.61 825.829 1367.15 825.829 1336.66 859.796 1336.66 825.829 1315.28 825.829 1315.39 909.443 1336.66 909.443 1336.66 877.67 1365.58 909.443 1392.61 909.443 1353.64 868.161 1392.61 825.829ZM1280.81 860.215 1261.32 858.021C1249.9 856.766 1247.07 853.943 1247.07 850.075 1247.07 845.79 1252.94 841.923 1264.36 841.923 1275.36 841.923 1281.13 846.002 1282.17 852.168L1303.13 852.168C1302.07 834.501 1287.2 823.53 1265.51 823.53 1239.74 823.53 1226.74 833.77 1226.74 851.85 1226.74 866.588 1235.33 873.49 1253.15 875.37L1272.95 877.458C1280.5 878.294 1283.96 881.224 1283.96 884.985 1283.96 889.271 1278.93 893.138 1266.77 893.138 1252.73 893.138 1247.07 889.583 1246.13 882.474L1225.59 882.474C1226.53 901.709 1239.11 911.53 1266.04 911.53 1290.66 911.53 1304.39 900.766 1304.39 884.567 1304.39 870.455 1296.21 861.989 1280.81 860.215ZM1148.67 909.443 1216.16 909.443 1216.16 891.363 1170.05 891.363 1170.05 876.208 1207.14 876.208 1207.14 858.021 1170.05 858.021 1170.05 843.909 1216.16 843.909 1216.16 825.829 1148.67 825.829 1148.67 909.443ZM1098.38 825.829 1059.19 825.829 1059.19 909.443 1098.38 909.443C1128.45 909.443 1136.73 898.26 1136.73 867.006 1136.73 837.637 1128.77 825.829 1098.38 825.829ZM1097.52 891.369 1080.52 891.369 1080.52 843.909 1097.52 843.909C1110.93 843.909 1114.91 847.57 1114.91 867.006 1114.93 884.773 1110.43 891.369 1097.52 891.369ZM1001.14 823.53C970.643 823.53 954.822 842.235 954.822 867.424 954.822 892.719 970.643 911.53 1001.14 911.53 1031.74 911.53 1047.56 892.719 1047.56 867.424 1047.56 842.235 1031.74 823.53 1001.14 823.53ZM1001.14 892.719C985.317 892.719 976.617 883.105 976.617 867.424 976.617 852.062 985.317 842.341 1001.14 842.341 1017.07 842.341 1025.66 852.062 1025.66 867.424 1025.66 883.105 1017.07 892.719 1001.14 892.719ZM876.021 843.909 903.054 843.909 903.054 909.443 924.431 909.443 924.431 843.909 951.364 843.909 951.364 825.829 876.021 825.829 876.021 843.909ZM844.904 877.458C844.904 888.328 838.196 892.719 826.772 892.719 815.666 892.719 808.438 888.122 808.438 877.458L808.438 825.829 787.061 825.829 787.061 879.863C787.061 904.008 808.645 911.53 826.772 911.53 844.797 911.53 866.275 904.008 866.275 879.863L866.275 825.829 844.904 825.829ZM724.502 825.829 692.333 909.443 714.443 909.443 720.057 893.763 755.971 893.763 761.494 909.443 784.331 909.443 751.769 825.829ZM726.42 875.996 738.162 843.221 749.709 876.006ZM533.273 909.449 608.339 862.874 647.28 862.874C648.535 862.874 649.553 863.889 649.553 865.141 649.553 865.143 649.553 865.145 649.553 865.146 649.617 865.937 649.198 866.689 648.49 867.054L611.622 889.102C609.226 890.531 608.387 893.403 608.387 895.554L608.35 909.449 655.204 909.449 655.204 828.695C655.209 827.113 653.926 825.826 652.339 825.821 652.295 825.821 652.252 825.822 652.208 825.824L607.5 825.824 532.615 872.197 532.615 909.449Z" stroke="#BFBFBF" stroke-width="5.08967" stroke-miterlimit="8" fill="#7F7F7F" fill-rule="evenodd"/><path d="M1528.96 825.694 1562.62 825.694 1562.62 903.694ZM1505.29 825.694 1471.62 825.694 1471.62 903.694ZM1517.09 854.424 1538.56 903.694 1524.52 903.694 1518.12 888.044 1502.43 888.044Z" fill="#EB1000" fill-rule="evenodd"/><path d="M1610.63 830.234 1632.45 830.234 1663.27 903.882 1640.2 903.882 1620.72 854.981 1607.84 887.073 1623.15 887.073 1629.27 903.882 1579.45 903.882 1610.63 830.234ZM1688.97 845.516C1691.21 845.516 1693.65 845.713 1696.08 846.305L1696.08 828.065 1715.37 828.065 1715.37 900.629C1710.95 902.601 1701.4 905.016 1691.86 905.016 1674.56 905.016 1659.69 895.256 1659.69 875.784 1659.69 856.312 1674.01 845.565 1688.97 845.565ZM1691.41 889.241C1693.2 889.241 1694.64 888.897 1696.08 888.453L1696.08 861.735C1694.64 861.192 1693.2 860.946 1691.31 860.946 1685 860.946 1679.13 865.58 1679.13 875.34 1679.13 885.101 1685.1 889.193 1691.41 889.193ZM1749.72 845.516C1765.78 845.516 1779.45 856.263 1779.45 875.192 1779.45 894.122 1765.83 904.869 1749.72 904.869 1733.62 904.869 1719.9 894.122 1719.9 875.192 1719.9 856.263 1733.42 845.516 1749.72 845.516ZM1749.72 888.946C1755.24 888.946 1760.36 884.558 1760.36 875.192 1760.36 865.826 1755.24 861.439 1749.72 861.439 1744.21 861.439 1739.18 865.826 1739.18 875.192 1739.18 884.558 1743.96 888.946 1749.72 888.946ZM1784.08 828.065 1803.46 828.065 1803.46 846.305C1805.8 845.861 1808.24 845.516 1810.67 845.516 1825.74 845.516 1839.71 855.277 1839.71 874.404 1839.71 894.615 1824.84 904.869 1807.24 904.869 1799.69 904.869 1790.04 903.34 1784.08 900.579L1784.08 828.016ZM1807.69 889.143C1814.35 889.143 1820.42 884.411 1820.42 874.65 1820.42 865.53 1814.45 861.241 1807.99 861.241 1806.2 861.241 1804.76 861.439 1803.46 862.03L1803.46 888.404C1804.56 888.847 1806 889.193 1807.69 889.193ZM1872.62 845.516C1887.13 845.516 1900.46 854.735 1900.46 873.319 1900.46 875.833 1900.36 878.249 1900.01 880.664L1863.87 880.664C1865.85 887.171 1871.62 890.227 1878.83 890.227 1884.7 890.227 1890.11 888.798 1896.23 886.185L1896.23 900.827C1890.56 903.686 1883.8 904.869 1876.84 904.869 1858.45 904.869 1844.13 893.876 1844.13 875.192 1844.13 856.509 1857.1 845.516 1872.62 845.516ZM1882.36 868.685C1881.37 862.424 1877.14 859.91 1872.82 859.91 1868.49 859.91 1864.96 862.573 1863.52 868.685L1882.36 868.685Z" fill="#EB1000" fill-rule="evenodd"/><path d="M2156.63 852.062 2156.61 853.202 2136.01 853.202C2135.56 846.902 2132.11 843.752 2125.66 843.752 2123.04 843.752 2121.02 844.322 2119.6 845.463 2118.2 846.6 2117.5 847.956 2117.5 849.541 2117.5 850.695 2118.07 851.791 2119.19 852.829 2120.33 853.869 2123.03 855.197 2127.26 856.813 2132.65 858.927 2137.02 860.92 2140.39 862.797 2143.76 864.677 2146.51 867.118 2148.66 870.122 2150.8 873.127 2151.86 876.865 2151.86 881.35 2151.86 885.568 2150.71 889.506 2148.39 893.147 2146.07 896.791 2142.74 899.802 2138.38 902.153 2134.02 904.515 2127.82 905.69 2119.78 905.69 2108.47 905.69 2100.45 903.485 2095.73 899.063 2090.99 894.642 2088.62 888.972 2088.62 882.047L2088.62 878.914 2109.33 878.929C2109.33 883.443 2110.31 886.638 2112.27 888.502 2114.23 890.36 2116.95 891.294 2120.42 891.294 2123.92 891.294 2126.58 890.516 2128.41 888.97 2130.24 887.419 2131.15 885.654 2131.15 883.676 2131.15 882.188 2130.57 880.825 2129.4 879.57 2128.24 878.316 2125.37 876.847 2120.8 875.165 2110.34 871.341 2103.72 867.81 2100.94 864.579 2098.18 861.347 2096.79 857.455 2096.79 852.904 2096.79 848.744 2097.93 844.954 2100.22 841.523 2102.5 838.096 2105.83 835.434 2110.17 833.535 2114.54 831.639 2119.76 830.69 2125.86 830.69 2145.14 830.691 2155.4 837.815 2156.63 852.062Z" fill="#747474" fill-rule="evenodd"/><path d="M2195.08 868.345C2193.65 865.613 2190.97 864.268 2186.94 864.268 2182.12 864.268 2178.4 866.258 2175.81 870.237 2173.22 874.221 2171.93 878.554 2171.93 883.242 2171.93 886.085 2172.85 888.263 2174.7 889.783 2176.54 891.304 2178.54 892.066 2180.68 892.066 2185.96 892.066 2189.9 889.127 2192.47 883.179L2211.51 883.056C2207.39 898.663 2196.04 905.689 2179.9 905.689 2161.72 905.689 2152.63 898.113 2152.63 882.947 2152.63 874.127 2155.62 866.544 2161.62 860.206 2167.61 853.861 2176.05 850.689 2186.94 850.689 2194.75 850.689 2200.99 852.316 2205.65 855.57 2209.71 858.396 2212.35 862.498 2213.63 868.337L2195.08 868.345Z" fill="#747474" fill-rule="evenodd"/><path d="M2263.76 905.566 2246.46 905.566C2246.46 905.566 2248.57 898.528 2248.57 898.45 2243.54 903.097 2237.53 905.689 2231.09 905.689 2224.53 905.689 2219.8 904.141 2216.94 901.031 2214.06 897.922 2212.63 894.326 2212.63 890.232 2212.63 885.572 2213.9 882.022 2216.47 879.578 2219.03 877.133 2222.19 875.471 2225.95 874.599 2229.7 873.723 2234.83 872.953 2241.33 872.291 2247.1 871.666 2250.96 871.057 2252.88 870.463 2253.28 868.908 2253.47 867.719 2253.47 866.894 2253.47 865.573 2252.82 864.515 2251.49 863.722 2250.17 862.93 2248.42 862.531 2246.23 862.531 2243.94 862.531 2242.09 862.904 2240.66 863.649 2239.25 864.391 2237.99 865.955 2236.92 868.331L2217.72 868.345C2219.09 861.747 2222.32 857.465 2226.6 854.754 2230.9 852.048 2237.56 850.689 2246.57 850.689 2256.78 850.689 2263.69 851.988 2267.27 854.582 2270.84 857.173 2272.63 860.947 2272.63 865.905 2272.63 869.208 2271.74 874.64 2269.94 882.205L2263.76 905.566ZM2250.68 880.916C2241.5 882.468 2236.12 883.84 2234.52 885.028 2232.92 886.219 2232.12 887.621 2232.12 889.242 2232.12 890.926 2232.69 892.253 2233.84 893.226 2234.97 894.205 2236.45 894.689 2238.24 894.689 2240.76 894.689 2243.25 893.658 2245.72 891.593 2248.18 889.525 2249.84 885.967 2250.68 880.916Z" fill="#747474" fill-rule="evenodd"/><path d="M2306.62 830.69 2290.25 905.69 2269.62 905.69 2286.05 830.69 2306.62 830.69Z" fill="#747474" fill-rule="evenodd"/><path d="M2356.38 889.146C2353.15 896.115 2348.87 899.954 2344.23 902.244 2339.57 904.544 2333.75 905.689 2326.76 905.689 2316.59 905.689 2309.35 903.355 2305.06 898.674 2300.77 894.005 2298.63 888.281 2298.63 881.511 2298.63 876.819 2299.64 872.403 2301.64 868.256 2303.65 864.11 2306.37 860.633 2309.8 857.825 2313.24 855.021 2316.63 853.127 2319.96 852.151 2323.29 851.179 2327.19 850.689 2331.67 850.689 2341.29 850.689 2348.18 852.822 2352.36 857.082 2356.55 861.341 2358.63 866.577 2358.63 872.787 2358.63 874.836 2358.19 878.354 2357.32 883.339L2318.02 883.339C2318.56 890.377 2321.66 893.895 2327.29 893.895 2331.12 893.895 2334.09 892.309 2336.36 889.141L2356.38 889.146ZM2339 873.582C2339.23 872.854 2339.34 871.847 2339.34 870.56 2339.34 867.882 2338.56 865.863 2336.98 864.49 2335.42 863.117 2333.47 862.43 2331.18 862.43 2328.75 862.43 2326.52 863.365 2324.47 865.232 2322.43 867.099 2320.88 869.879 2319.8 873.581L2339 873.581Z" fill="#747474" fill-rule="evenodd"/><path d="M2370.8 840.115C2371.45 838.302 2372.48 836.64 2373.92 835.141 2375.37 833.634 2377.19 832.516 2379.38 831.791 2381.56 831.069 2384.2 830.703 2387.28 830.703 2391.87 830.703 2404.63 830.69 2404.63 830.69L2401.2 843.58C2401.2 843.58 2395.88 843.587 2393.93 843.587 2392.48 843.587 2391.3 843.943 2390.41 844.651 2389.52 845.36 2388.68 847.958 2387.81 852.151L2397.57 852.151 2393.59 866.568 2384.85 866.568 2376.57 905.69 2356.63 905.69 2370.8 840.115Z" fill="#747474" fill-rule="evenodd"/><path d="M2424.68 850.689C2434.06 850.689 2440.89 853.07 2445.18 857.825 2449.48 862.583 2451.63 868.149 2451.63 874.523 2451.63 879.379 2450.39 884.32 2447.93 889.341 2445.46 894.362 2441.75 898.349 2436.79 901.278 2431.85 904.219 2425.76 905.689 2418.52 905.689 2409.34 905.689 2402.56 903.411 2398.18 898.876 2393.82 894.334 2391.63 888.675 2391.63 881.908 2391.63 876.592 2392.93 871.456 2395.55 866.498 2398.16 861.544 2401.95 857.671 2406.93 854.877 2411.88 852.088 2417.8 850.689 2424.68 850.689ZM2419.8 892.065C2423.55 892.065 2426.53 890.136 2428.74 886.292 2430.94 882.444 2432.04 878.177 2432.04 873.484 2432.04 870.078 2431.19 867.695 2429.52 866.322 2427.85 864.952 2425.98 864.268 2423.95 864.268 2419.7 864.268 2416.52 866.2 2414.39 870.065 2412.27 873.931 2411.22 877.879 2411.22 881.907 2411.22 884.817 2412.05 887.231 2413.7 889.168 2415.37 891.095 2417.39 892.065 2419.8 892.065Z" fill="#747474" fill-rule="evenodd"/><path d="M2475.97 863.111C2483.09 853.221 2481.6 852.694 2494.63 852.694L2491.17 867.931C2491.17 867.931 2488.2 867.926 2487.02 867.926 2483.28 867.926 2480.25 869.294 2477.93 872.034 2475.6 874.771 2473.79 879.156 2472.52 885.187L2468.16 905.694 2448.63 905.694 2459.79 852.717 2478.03 852.717 2475.77 862.937 2475.97 863.111Z" fill="#747474" fill-rule="evenodd"/><path d="M2549.73 859.63C2553.44 856.185 2556.83 853.836 2559.89 852.58 2562.96 851.321 2566.22 850.689 2569.69 850.689 2574.33 850.689 2577.82 851.955 2580.15 854.489 2582.47 857.023 2583.63 860.096 2583.63 863.702 2583.63 865.858 2583.42 867.942 2583 869.961L2575.34 905.689 2555.53 905.689 2560.62 882.082C2561.81 876.356 2562.47 872.94 2562.61 871.846 2562.73 870.757 2562.81 869.997 2562.81 869.565 2562.81 866.816 2561.54 865.445 2559.02 865.445 2556.09 865.445 2553.65 866.698 2551.73 869.219 2549.81 871.735 2548.28 875.708 2547.15 881.136L2541.92 905.689 2522.1 905.689 2527.09 882.477C2528.32 876.554 2529.01 873.038 2529.16 871.948 2529.3 870.855 2529.38 870.028 2529.38 869.466 2529.38 866.783 2528.05 865.445 2525.4 865.445 2523.4 865.445 2521.29 866.494 2519.07 868.598 2516.86 870.698 2515.23 874.269 2514.17 879.297L2508.49 905.689 2488.63 905.689 2500.02 851.886 2518.38 851.886 2516.77 859.431 2516.97 859.633C2522.62 853.671 2528.97 850.693 2536.01 850.693 2539.24 850.693 2542.09 851.471 2544.59 853.031 2547.06 854.581 2548.78 856.785 2549.73 859.63Z" fill="#747474" fill-rule="evenodd"/><path d="M2599.12 847.686C2594.43 847.686 2590.62 851.493 2590.62 856.187 2590.62 860.882 2594.43 864.686 2599.12 864.686 2603.82 864.686 2607.62 860.882 2607.62 856.187 2607.62 851.493 2603.82 847.686 2599.12 847.686ZM2599.12 862.798C2595.47 862.798 2592.51 859.839 2592.51 856.187 2592.51 852.536 2595.47 849.574 2599.12 849.574 2602.77 849.574 2605.73 852.536 2605.73 856.187 2605.73 859.839 2602.77 862.798 2599.12 862.798ZM2603.13 854.532C2603.13 854.06 2603.13 854.532 2603.13 854.06 2603.13 853.116 2602.19 851.465 2600.77 851.465 2599.36 851.465 2594.87 851.465 2594.87 851.465L2594.87 860.91 2597.23 860.91 2597.23 857.132 2597.94 857.132 2601.01 860.91 2603.61 860.91 2600.54 857.132C2601.95 857.132 2603.13 855.478 2603.13 854.532ZM2599.83 855.243C2599.59 855.243 2597.23 855.243 2597.23 855.243L2597.23 853.354C2597.23 853.354 2599.59 853.354 2599.83 853.354 2600.3 853.354 2600.77 853.822 2600.77 854.299 2600.77 854.766 2600.3 855.243 2599.83 855.243Z" fill="#747474" fill-rule="evenodd"/><path d="M2058.83 827.446C2056.03 827.446 2049.09 831.609 2047.7 838.545 2046.31 845.483 2040.74 878.784 2039.35 888.494 2037.97 898.205 2025.46 910.693 2011.55 910.693 1997.65 910.693 1972.62 910.693 1972.62 910.693L1975.4 882.943C1975.4 882.943 1996.25 882.943 2000.43 882.943 2004.6 882.943 2010.15 878.784 2011.55 871.846 2012.94 864.905 2018.5 831.609 2019.89 821.892 2021.28 812.182 2033.8 799.693 2047.7 799.693 2061.6 799.693 2086.62 799.693 2086.62 799.693L2082.11 827.446C2082.11 827.446 2061.6 827.446 2058.83 827.446Z" fill="url(#fill0)" fill-rule="evenodd"/><path d="M2057.3 844.69 2052.62 872.69 2074.94 872.69 2079.62 844.69Z" fill="url(#fill1)" fill-rule="evenodd"/><g><g><g><path d="M284.544 70.5995C284.544 75.5086 288.472 79.1847 293.152 79.1847 297.81 79.1847 301.715 75.5086 301.715 70.5995 301.715 65.7817 297.81 62.1056 293.152 62.1056 288.472 62.1056 284.544 65.7817 284.544 70.5995ZM286.097 70.5995C286.097 66.5124 289.157 63.3614 293.152 63.3614 297.102 63.3614 300.162 66.5124 300.162 70.5995 300.162 74.7779 297.102 77.9289 293.152 77.9289 289.157 77.9289 286.097 74.7779 286.097 70.5995ZM289.659 75.4172 291.211 75.4172 291.211 71.1246 292.855 71.1246 295.573 75.4172 297.239 75.4172 294.385 71.0105C295.869 70.8507 297.011 70.0972 297.011 68.2934 297.011 66.3754 295.892 65.4392 293.518 65.4392L289.659 65.4392 289.659 75.4172ZM291.211 66.6951 293.266 66.6951C294.317 66.6951 295.458 66.9006 295.458 68.2249 295.458 69.8003 294.203 69.8688 292.833 69.8688L291.211 69.8688 291.211 66.6951Z" stroke="#AEAEAE" stroke-width="2.2833" fill="#A6A6A6" fill-rule="evenodd" transform="matrix(1.00426 0 0 1 2680 831.408)"/><path d="M53.178 34.9344C53.178 39.8272 49.2116 43.7936 44.3188 43.7936 39.426 43.7936 35.4596 39.8272 35.4596 34.9344 35.4596 30.0416 39.426 26.0752 44.3188 26.0752 49.2116 26.0752 53.178 30.0416 53.178 34.9344Z" stroke="#AEAEAE" stroke-width="2.2833" fill="#A6A6A6" transform="matrix(1.00426 0 0 1 2680 831.408)"/><path d="M266.301 57.0139C266.598 56.5572 266.894 56.0321 267.146 55.4612 268.538 52.7441 271.392 50.9175 274.658 50.9175 279.293 50.9175 283.06 54.6849 283.06 59.32 283.06 60.5073 282.809 61.6033 282.375 62.6308L282.147 63.1331C277.512 72.6773 267.694 79.1847 256.551 79.1847 241.093 79.1847 228.558 66.6494 228.558 51.1915 228.558 35.7336 241.093 23.1983 256.551 23.1983L257.784 23.1983C262.373 23.4038 266.735 24.7053 270.548 26.8744L270.548 0 287.193 0 287.193 37.8799C287.193 42.2638 283.311 46.9674 278.242 46.9674 272.511 46.9674 268.15 45.1179 264.794 42.2638 262.876 40.7568 260.433 39.8663 257.807 39.8663L256.574 39.8663C250.295 39.8663 245.226 44.9581 245.226 51.2143 245.226 57.4934 250.318 62.5623 256.574 62.5623 260.684 62.5395 264.314 60.3247 266.301 57.0139Z" stroke="#AEAEAE" stroke-width="2.2833" fill="#A6A6A6" transform="matrix(1.00426 0 0 1 2680 831.408)"/><path d="M168.165 51.1915C168.165 35.7336 180.7 23.1983 196.158 23.1983 211.616 23.1983 224.151 35.7336 224.151 51.1915 224.151 66.6494 211.616 79.1847 196.158 79.1847 180.677 79.1847 168.165 66.6494 168.165 51.1915ZM207.506 51.1915C207.506 44.9124 202.414 39.8435 196.158 39.8435 189.879 39.8435 184.81 44.9353 184.81 51.1915 184.81 57.4705 189.902 62.5395 196.158 62.5395 202.414 62.5395 207.506 57.4705 207.506 51.1915Z" stroke="#AEAEAE" stroke-width="2.2833" fill="#A6A6A6" transform="matrix(1.00426 0 0 1 2680 831.408)"/><path d="M134.326 39.7978C132.933 39.7978 131.746 40.7112 131.335 41.967L124.645 65.0511C122.225 73.2253 114.713 79.1847 105.762 79.1847 96.8117 79.1847 89.2997 73.2253 86.8794 65.0511L80.1893 41.967C79.7783 40.6883 78.591 39.7978 77.1982 39.7978 75.8054 39.7978 74.5953 40.7112 74.1843 41.967L67.4942 65.0511C65.0739 73.2253 57.5162 79.1847 48.5429 79.1847L43.9078 79.1847 43.9078 62.5851 48.6114 62.5851C50.0042 62.5851 51.1686 61.6946 51.5796 60.416L58.2697 37.3319C60.69 29.1577 68.2477 23.1983 77.1982 23.1983 86.1487 23.1983 93.7064 29.1577 96.1267 37.3319L102.817 60.416C103.228 61.6946 104.392 62.5851 105.785 62.5851 107.178 62.5851 108.342 61.6946 108.753 60.416L115.443 37.3319C117.864 29.1577 125.399 23.1983 134.372 23.1983 143.322 23.1983 150.88 29.1577 153.3 37.3319L159.991 60.416C160.402 61.6946 161.566 62.5851 162.959 62.5851L167.662 62.5851 167.662 79.1847 163.027 79.1847C154.077 79.1847 146.496 73.2253 144.076 65.0511L137.386 41.967C136.906 40.7112 135.719 39.7978 134.326 39.7978Z" stroke="#AEAEAE" stroke-width="2.2833" fill="#A6A6A6" transform="matrix(1.00426 0 0 1 2680 831.408)"/><path d="M42.1725 16.6452C35.8934 16.6452 30.8245 21.737 30.8245 27.9932L30.8245 79.1847 14.1793 79.1847 14.1793 43.8164 0 43.8164 0 27.2397 14.1793 27.2397C14.5903 12.1243 26.9657 0 42.1725 0L58.772 0 58.772 16.6452 42.1725 16.6452Z" stroke="#AEAEAE" stroke-width="2.2833" fill="#A6A6A6" transform="matrix(1.00426 0 0 1 2680 831.408)"/></g></g></g></g></svg>