<svg width="2186" height="217" xmlns="http://www.w3.org/2000/svg" xmlns:xlink="http://www.w3.org/1999/xlink" xml:space="preserve" overflow="hidden"><defs><clipPath id="clip0"><rect x="1035" y="852" width="2186" height="217"/></clipPath><linearGradient x1="2701" y1="915" x2="2701" y2="1015" gradientUnits="userSpaceOnUse" spreadMethod="reflect" id="fill1"><stop offset="0" stop-color="#F0F8FD"/><stop offset="0.35" stop-color="#74C4E9"/><stop offset="0.76" stop-color="#4E95D9"/><stop offset="1" stop-color="#74C4E9"/></linearGradient><linearGradient x1="2734" y1="955" x2="2734" y2="980" gradientUnits="userSpaceOnUse" spreadMethod="reflect" id="fill2"><stop offset="0" stop-color="#F0F8FD"/><stop offset="0.55" stop-color="#A6A6A6"/><stop offset="1" stop-color="#FFFFFF"/></linearGradient></defs><g clip-path="url(#clip0)" transform="translate(-1035 -852)"><path d="M1155.96 1001C1152.3 1000.77 1148.71 999.98 1145.3 998.65L1080.8 974.142C1075.36 972.099 1074 968.431 1074 961.601L1074 892.491C1074 885.655 1075.48 881.987 1080.91 879.95L1145.3 855.348C1148.71 854.017 1152.3 853.225 1155.96 852.998 1159.61 853.225 1163.2 854.017 1166.61 855.348L1231.1 879.944C1236.52 881.987 1238 885.655 1238 892.485L1238 961.595C1238 968.431 1236.52 972.099 1231.1 974.136L1166.61 998.745C1163.2 1000.04 1159.6 1000.8 1155.96 1001Z" fill="#005BAC" fill-rule="evenodd"/><path d="M1229.95 926.459 1229.95 960.402C1230.27 962.908 1228.75 965.285 1226.34 966.066L1173.83 981.652C1171.26 982.658 1168.35 981.398 1167.34 978.839 1167.01 978 1166.91 977.088 1167.06 976.198L1167.06 876.744C1167.06 872.044 1170.23 870.232 1173.83 871.291L1226.33 887.014C1228.71 887.753 1230.23 890.062 1229.95 892.522Z" fill="#FFFFFF" fill-rule="evenodd"/><path d="M1142.98 907.446C1143.2 904.671 1141.18 902.238 1138.46 901.997L1138.46 901.997C1135.25 902.335 1132.86 905.168 1133.02 908.451 1132.76 911.232 1134.75 913.707 1137.47 913.997L1137.47 913.997C1140.75 913.705 1143.2 910.794 1142.98 907.446Z" fill="#FFFFFF" fill-rule="evenodd"/><path d="M1121.98 909.633C1121.98 907.008 1120.35 904.997 1118.31 904.997 1115.61 905.419 1113.73 907.774 1114.03 910.361 1114.03 913.032 1115.74 914.997 1117.73 914.997 1120.35 914.462 1122.16 912.179 1121.98 909.633Z" fill="#FFFFFF" fill-rule="evenodd"/><path d="M1110 904.494C1110 902.102 1108.78 899.997 1106.85 899.997 1104.93 899.997 1103 902.604 1103 905.475 1103 908.347 1104.47 909.997 1106.12 909.997 1108.31 909.997 1110 907.39 1110 904.494Z" fill="#FFFFFF" fill-rule="evenodd"/><path d="M1099 912.295C1099 909.757 1097.69 907.996 1096.22 907.996 1094.35 907.996 1093 910.344 1093 912.888 1093 915.432 1094.26 916.997 1095.82 916.997 1097.38 916.997 1099 915.019 1099 912.295Z" fill="#FFFFFF" fill-rule="evenodd"/><path d="M1133.97 893.018C1134.21 890.53 1132.54 888.299 1130.23 887.997L1130.23 887.997C1127.07 888.523 1124.81 891.551 1125.02 894.976 1124.8 897.469 1126.47 899.697 1128.78 899.997L1128.99 899.997C1132.06 899.368 1134.21 896.366 1133.97 893.018Z" fill="#FFFFFF" fill-rule="evenodd"/><path d="M1122 886.064C1122 883.866 1120.71 881.998 1118.69 881.998 1115.84 882.648 1113.88 885.096 1114 887.843 1114 891.031 1115.95 891.998 1117.26 891.998 1119.81 891.998 1122 889.065 1122 886.064Z" fill="#FFFFFF" fill-rule="evenodd"/><path d="M1110 886.087C1110 883.724 1108.74 881.997 1107.14 881.997 1105.02 881.997 1103 884.767 1103 887.884 1103 890.438 1104.33 891.998 1105.88 891.998 1108.21 891.995 1110 888.875 1110 886.087Z" fill="#FFFFFF" fill-rule="evenodd"/><path d="M1099 891.822C1099 889.139 1097.6 887.997 1096.48 887.997 1094.65 887.997 1093 890.448 1093 893.173 1093 894.982 1093.81 896.997 1095.56 896.997 1097.31 896.997 1099 894.547 1099 891.822Z" fill="#FFFFFF" fill-rule="evenodd"/><path d="M1091 900.998C1091 898.572 1089.95 896.997 1088.83 896.997 1087.33 896.997 1086 899.277 1086 902.018 1086 904.298 1086.98 905.997 1088.17 905.997 1089.36 905.997 1091 903.764 1091 900.998Z" fill="#FFFFFF" fill-rule="evenodd"/><path d="M1086 913.192C1086 911.092 1085.09 908.996 1083.66 908.996 1082.24 908.996 1081 910.941 1081 913.801 1081 915.621 1081.79 917.997 1083.33 917.997 1084.88 917.997 1086 916.124 1086 913.192Z" fill="#FFFFFF" fill-rule="evenodd"/><path d="M1136.08 926.465C1135.58 929.466 1137.37 932.348 1140.08 932.903 1142.8 933.458 1145.4 931.475 1145.9 928.475 1145.91 928.454 1145.91 928.434 1145.91 928.414 1146.02 927.77 1146.02 927.109 1145.91 926.465 1146.38 923.459 1144.56 920.599 1141.84 920.078 1139.15 919.561 1136.58 921.54 1136.08 924.517 1135.97 925.16 1135.97 925.822 1136.08 926.465Z" fill="#FFFFFF" fill-rule="evenodd"/><path d="M1119.13 926.481C1118.56 928.815 1119.82 931.216 1121.96 931.844 1124.09 932.473 1126.29 931.09 1126.86 928.756 1127.04 928.011 1127.04 927.227 1126.86 926.481 1126.86 923.306 1125.19 920.996 1122.95 920.996 1120.53 921.393 1118.84 923.823 1119.13 926.481Z" fill="#FFFFFF" fill-rule="evenodd"/><path d="M1103 926.02C1103 929.199 1104.83 930.996 1106.5 930.996 1108.73 930.996 1110 928.38 1110 926.02 1110 923.66 1108.73 920.996 1106.5 920.996 1104.83 920.996 1103 922.866 1103 926.02Z" fill="#FFFFFF" fill-rule="evenodd"/><path d="M1090 926.428C1090 929.17 1091.21 930.996 1092.5 930.996 1093.79 930.996 1095 929.098 1095 926.428 1095 923.757 1093.87 921.996 1092.5 921.996 1091.12 921.996 1090 923.801 1090 926.428Z" fill="#FFFFFF" fill-rule="evenodd"/><path d="M1080 926.482C1080 929.031 1081.23 930.996 1082.41 930.996 1083.59 930.996 1085 928.905 1085 926.482 1085 924.06 1083.93 921.996 1082.41 921.996 1080.89 921.996 1080 923.881 1080 926.482Z" fill="#FFFFFF" fill-rule="evenodd"/><path d="M1142.98 945.547C1143.2 948.321 1141.18 950.755 1138.46 950.996L1138.46 950.996C1135.24 950.655 1132.85 947.807 1133.02 944.516 1132.75 941.744 1134.74 939.274 1137.46 938.999 1137.47 938.998 1137.48 938.997 1137.5 938.995L1137.5 938.995C1140.76 939.301 1143.2 942.207 1142.98 945.547Z" fill="#FFFFFF" fill-rule="evenodd"/><path d="M1121.99 943.319C1121.99 945.967 1120.35 947.996 1118.31 947.996 1115.64 947.572 1113.77 945.25 1114.02 942.673 1114.02 939.957 1115.73 937.996 1117.72 937.996 1120.32 938.514 1122.14 940.778 1121.99 943.319Z" fill="#FFFFFF" fill-rule="evenodd"/><path d="M1110 948.498C1110 950.89 1108.78 952.995 1106.85 952.995 1104.93 952.995 1103 950.292 1103 947.492 1103 944.693 1104.47 942.995 1106.12 942.995 1108.31 942.995 1110 945.652 1110 948.498Z" fill="#FFFFFF" fill-rule="evenodd"/><path d="M1099 940.778C1099 943.268 1097.69 944.996 1096.22 944.996 1094.35 944.996 1093 942.692 1093 940.196 1093 937.7 1094.26 935.996 1095.82 935.996 1097.38 935.996 1099 938.012 1099 940.778Z" fill="#FFFFFF" fill-rule="evenodd"/><path d="M1133.96 959.797C1134.26 962.342 1132.59 964.669 1130.22 964.995 1130.22 964.995 1130.22 964.995 1130.22 964.995L1130.22 964.995C1127.07 964.469 1124.81 961.441 1125.01 958.016 1124.81 955.519 1126.48 953.297 1128.8 952.995L1128.98 952.995C1131.99 953.614 1134.11 956.514 1133.96 959.797Z" fill="#FFFFFF" fill-rule="evenodd"/><path d="M1122 966.929C1122 969.127 1120.71 970.995 1118.69 970.995 1115.84 970.338 1113.88 967.895 1114 965.15 1114 961.985 1115.95 960.995 1117.26 960.995 1119.81 961.007 1122 963.931 1122 966.929Z" fill="#FFFFFF" fill-rule="evenodd"/><path d="M1110 966.881C1110 969.244 1108.74 970.995 1107.14 970.995 1105.02 970.995 1103 968.207 1103 965.108 1103 962.533 1104.33 960.995 1105.88 960.995 1108.21 960.995 1110 964.115 1110 966.881Z" fill="#FFFFFF" fill-rule="evenodd"/><path d="M1099 961.156C1099 963.85 1097.6 964.995 1096.48 964.995 1094.65 964.995 1093 962.527 1093 959.81 1093 958.005 1093.81 955.995 1095.56 955.995 1097.31 955.995 1099 958.531 1099 961.156Z" fill="#FFFFFF" fill-rule="evenodd"/><path d="M1091 951.994C1091 954.419 1089.95 955.995 1088.83 955.995 1087.33 955.995 1086 953.715 1086 950.974 1086 948.233 1086.98 946.995 1088.17 946.995 1089.36 946.995 1091 949.253 1091 951.994Z" fill="#FFFFFF" fill-rule="evenodd"/><path d="M1086 939.786C1086 941.902 1085.09 943.995 1083.66 943.995 1082.24 943.995 1081 942.053 1081 939.205 1081 937.364 1081.79 934.995 1083.33 934.995 1084.88 934.995 1086 936.885 1086 939.786Z" fill="#FFFFFF" fill-rule="evenodd"/><path d="M1284.51 1027.82C1285.08 1027.82 1285.49 1027.28 1285.49 1026.46 1285.53 1025.7 1285.01 1025.04 1284.32 1024.99 1284.32 1024.99 1284.32 1024.99 1284.32 1024.99L1282.99 1024.99 1282.99 1029.99 1283.52 1029.99 1283.52 1025.53 1284.24 1025.53C1284.65 1025.49 1285 1025.82 1285.04 1026.28 1285.04 1026.28 1285.04 1026.28 1285.04 1026.28L1285.04 1026.28 1285.04 1026.45C1285.04 1027.06 1284.84 1027.4 1284.22 1027.4L1283.73 1027.4 1285.43 1029.99 1285.99 1029.99Z" fill="#215F9A" fill-rule="evenodd"/><path d="M1284.49 1032.49C1282.28 1032.49 1280.49 1030.48 1280.49 1027.99 1280.49 1025.51 1282.28 1023.49 1284.49 1023.49 1286.7 1023.49 1288.49 1025.51 1288.49 1027.99L1288.49 1027.99C1288.48 1030.47 1286.69 1032.47 1284.49 1032.49ZM1284.49 1024.07C1282.56 1024.06 1280.99 1025.81 1280.97 1027.98 1280.96 1030.15 1282.52 1031.92 1284.44 1031.93 1286.37 1031.95 1287.95 1030.2 1287.96 1028.03 1287.96 1028.03 1287.96 1028.03 1287.96 1028.03L1287.96 1028.03C1287.97 1025.86 1286.42 1024.09 1284.49 1024.07Z" stroke="#4E95D9" stroke-width="0.767257" stroke-miterlimit="8" fill="#215F9A" fill-rule="evenodd"/><path d="M1274.99 1027.61 1274.99 1022.99 1252.54 1022.99C1252.23 1022.99 1251.99 1023.24 1251.99 1023.55L1251.99 1067.44C1251.99 1067.75 1252.23 1067.99 1252.54 1067.99L1274.99 1067.99 1274.99 1063.37 1257.04 1063.37 1257.04 1046.37 1271.94 1046.37 1271.94 1041.61 1257.04 1041.61 1257.04 1027.61Z" fill="#215F9A" fill-rule="evenodd"/><path d="M1171.37 1022.47 1164.47 1060.66 1157.14 1022.47C1157.09 1022.2 1156.86 1022 1156.58 1021.99L1152.2 1021.99C1151.93 1022 1151.7 1022.2 1151.66 1022.47L1144.33 1060.66 1137.43 1022.47C1137.39 1022.19 1137.15 1021.99 1136.87 1021.99L1132 1021.99 1141.42 1067.99 1146.88 1067.99C1147.16 1068 1147.4 1067.8 1147.44 1067.52L1154.49 1029.66 1161.54 1067.52C1161.59 1067.8 1161.83 1068 1162.11 1067.99L1167.55 1067.99 1177 1022 1171.91 1022C1171.64 1022 1171.41 1022.2 1171.37 1022.47Z" fill="#215F9A" fill-rule="evenodd"/><path d="M1233.01 1048.01C1238.8 1048.01 1243.12 1042.98 1243.12 1035.63 1243.63 1028.61 1238.23 1022.52 1231.07 1022.02 1230.45 1021.98 1229.84 1021.98 1229.22 1022.02L1217.57 1022.02C1217.25 1022.05 1217 1022.3 1216.99 1022.61L1216.99 1067.99 1222.33 1067.99 1222.33 1026.98 1229.93 1026.98C1235.17 1026.98 1238.1 1030.24 1238.1 1035.63 1238.1 1041.01 1236.19 1044.37 1229.73 1044.37L1224.56 1044.37 1242.15 1067.99 1247.99 1067.99Z" fill="#215F9A" fill-rule="evenodd"/><path d="M1114.01 1022.02 1121.01 1022.02 1121.01 1068.03 1114.01 1068.03Z" fill="#005BAC" fill-rule="evenodd"/><path d="M1101.12 1067.99 1084.44 1045.41 1084.44 1067.99 1077 1067.99 1077 1022 1089.71 1022C1093.33 1021.89 1096.87 1023.11 1099.64 1025.43 1102.58 1028.19 1104.16 1032.08 1103.98 1036.09 1103.98 1042.69 1100.57 1047.68 1095.61 1048.86L1110 1067.99ZM1084.44 1043.12 1090.04 1043.12C1091.96 1043.4 1093.89 1042.76 1095.26 1041.39 1096.31 1039.86 1096.78 1038 1096.59 1036.16 1097.08 1032.86 1094.79 1029.8 1091.47 1029.31 1091.07 1029.25 1090.66 1029.23 1090.25 1029.25L1084.55 1029.25Z" fill="#005BAC" fill-rule="evenodd"/><path d="M1057.56 1068.97C1045.73 1068.97 1036 1058.43 1036 1045.48 1036 1032.53 1045.72 1021.99 1057.56 1021.99 1061.81 1022.04 1065.95 1023.42 1069.38 1025.94L1069.9 1026.34 1069.9 1036.77 1069.74 1036.77C1067.43 1032.16 1062.71 1029.25 1057.56 1029.25 1053.72 1029.29 1050.11 1031.02 1047.67 1033.98 1042.08 1040.6 1042.08 1050.28 1047.67 1056.9 1050.11 1059.85 1053.72 1061.58 1057.56 1061.63 1062.72 1061.77 1067.51 1058.91 1069.83 1054.3L1070 1054.3 1070 1064.76 1069.48 1065.14C1066.02 1067.67 1061.84 1069.02 1057.56 1068.99Z" fill="#005BAC" fill-rule="evenodd"/><path d="M1213.99 1067.99 1195.32 1020.99 1192.66 1020.99 1173.99 1067.99 1179.36 1067.99 1194.06 1030.14 1201.86 1050.01 1189.4 1050.01 1187.88 1054.74 1203.8 1054.74 1208.63 1067.98Z" fill="#215F9A" fill-rule="evenodd"/><g><g><g><path d="M773.055 2.07196 750.168 2.07196 722.755 32.6835 722.755 2.07196 703.539 2.07196 703.635 77.4263 722.755 77.4263 722.755 48.7913 748.755 77.4263 773.055 77.4263 738.018 40.2218 773.055 2.07196ZM672.556 33.0606 655.035 31.0841C644.766 29.9527 642.226 27.4081 642.226 23.923 642.226 20.0608 647.501 16.5757 657.765 16.5757 667.657 16.5757 672.837 20.2517 673.778 25.8088L692.616 25.8088C691.662 9.88715 678.294 0 658.801 0 635.633 0 623.951 9.22833 623.951 25.5223 623.951 38.8039 631.675 45.0245 647.687 46.7193L665.49 48.6003C672.274 49.3546 675.382 51.9947 675.382 55.3843 675.382 59.2465 670.861 62.7316 659.933 62.7316 647.31 62.7316 642.226 59.5282 641.376 53.1214L622.915 53.1214C623.764 70.4561 635.065 79.3073 659.274 79.3073 681.407 79.3073 693.748 69.6063 693.748 55.0071 693.748 42.2889 686.4 34.6599 672.556 33.0606ZM553.776 77.4263 614.436 77.4263 614.436 61.1323 572.992 61.1323 572.992 47.4736 606.334 47.4736 606.334 31.0841 572.992 31.0841 572.992 18.3659 614.436 18.3659 614.436 2.07196 553.776 2.07196 553.776 77.4263ZM508.565 2.07196 473.337 2.07196 473.337 77.4263 508.565 77.4263C535.601 77.4263 543.039 67.3482 543.039 39.181 543.039 12.7134 535.883 2.07196 508.565 2.07196ZM507.792 61.1371 492.515 61.1371 492.515 18.3659 507.792 18.3659C519.851 18.3659 523.427 21.6649 523.427 39.181 523.446 55.1933 519.398 61.1371 507.792 61.1371ZM421.156 0C393.744 0 379.522 16.8573 379.522 39.5582 379.522 62.3545 393.744 79.3073 421.156 79.3073 448.66 79.3073 462.882 62.3545 462.882 39.5582 462.882 16.8573 448.66 0 421.156 0ZM421.156 62.3545C406.934 62.3545 399.114 53.6895 399.114 39.5582 399.114 25.7133 406.934 16.9528 421.156 16.9528 435.479 16.9528 443.198 25.7133 443.198 39.5582 443.198 53.6895 435.474 62.3545 421.156 62.3545ZM308.688 18.3659 332.988 18.3659 332.988 77.4263 352.204 77.4263 352.204 18.3659 376.414 18.3659 376.414 2.07196 308.688 2.07196 308.688 18.3659ZM280.717 48.6003C280.717 58.3967 274.687 62.3545 264.418 62.3545 254.435 62.3545 247.938 58.2106 247.938 48.6003L247.938 2.07196 228.722 2.07196 228.722 50.7677C228.722 72.5281 248.124 79.3073 264.418 79.3073 280.621 79.3073 299.928 72.5281 299.928 50.7677L299.928 2.07196 280.717 2.07196ZM172.488 2.07196 143.571 77.4263 163.446 77.4263 168.492 63.295 200.775 63.295 205.74 77.4263 226.268 77.4263 196.998 2.07196ZM174.212 47.2826 184.767 17.7453 195.146 47.2922ZM0.591988 77.4311 68.0691 35.4572 103.073 35.4572C104.201 35.4572 105.116 36.372 105.116 37.5005 105.116 37.5021 105.116 37.5037 105.116 37.5053 105.173 38.2182 104.797 38.8956 104.161 39.224L71.0195 59.0938C68.8663 60.3828 68.112 62.9703 68.112 64.9086L68.0786 77.4311 110.196 77.4311 110.196 4.65474C110.2 3.22832 109.047 2.06878 107.62 2.06486 107.581 2.06475 107.542 2.06553 107.503 2.06718L67.3148 2.06718 0 43.8596 0 77.4311Z" stroke="#BFBFBF" stroke-width="4.5803" fill="#7F7F7F" transform="matrix(1.0019 0 0 1 1352.24 935.641)"/></g></g></g><g><g><g><path d="M2250.11 938.125 2280.29 938.125 2280.29 1008.58ZM2228.89 938.125 2198.71 938.125 2198.71 1008.58ZM2239.47 964.076 2258.72 1008.58 2246.13 1008.58 2240.39 994.444 2226.33 994.444Z" fill="#EB1000"/></g></g></g><g><g><g><path d="M27.8807 45.4451 47.4016 45.4451 74.971 111.878 54.3384 111.878 36.9074 67.7674 25.3905 96.7153 39.0863 96.7153 44.5557 111.878 0 111.878 27.8807 45.4451ZM97.9604 59.2298C99.9614 59.2298 102.14 59.4076 104.319 59.9412L104.319 43.4885 121.572 43.4885 121.572 108.944C117.615 110.722 109.077 112.901 100.539 112.901 85.065 112.901 71.7694 104.097 71.7694 86.5324 71.7694 68.968 84.5759 59.2742 97.9604 59.2742ZM100.139 98.6718C101.74 98.6718 103.03 98.3606 104.319 97.9604L104.319 73.8594C103.03 73.3702 101.74 73.1479 100.05 73.1479 94.403 73.1479 89.1559 77.3278 89.1559 86.1322 89.1559 94.9366 94.492 98.6274 100.139 98.6274ZM152.299 59.2298C166.662 59.2298 178.89 68.9235 178.89 85.9988 178.89 103.074 166.706 112.768 152.299 112.768 137.892 112.768 125.619 103.074 125.619 85.9988 125.619 68.9235 137.714 59.2298 152.299 59.2298ZM152.299 98.405C157.235 98.405 161.815 94.4475 161.815 85.9988 161.815 77.5501 157.235 73.5926 152.299 73.5926 147.363 73.5926 142.872 77.5501 142.872 85.9988 142.872 94.4475 147.141 98.405 152.299 98.405ZM183.025 43.4885 200.367 43.4885 200.367 59.9412C202.457 59.541 204.636 59.2298 206.815 59.2298 220.289 59.2298 232.784 68.0342 232.784 85.2873 232.784 103.519 219.488 112.768 203.747 112.768 196.988 112.768 188.361 111.389 183.025 108.899L183.025 43.4441ZM204.147 98.5829C210.106 98.5829 215.531 94.3141 215.531 85.5097 215.531 77.2833 210.195 73.4147 204.414 73.4147 202.813 73.4147 201.524 73.5926 200.367 74.1262L200.367 97.9159C201.346 98.3161 202.635 98.6274 204.147 98.6274ZM262.221 59.2298C275.205 59.2298 287.122 67.5451 287.122 84.3091 287.122 86.5769 287.033 88.7557 286.722 90.9346L254.395 90.9346C256.173 96.8042 261.331 99.5612 267.779 99.5612 273.026 99.5612 277.873 98.2716 283.342 95.9149L283.342 109.122C278.273 111.701 272.226 112.768 266 112.768 249.548 112.768 236.741 102.852 236.741 85.9988 236.741 69.1459 248.347 59.2298 262.221 59.2298ZM270.936 80.1292C270.047 74.4819 266.267 72.2141 262.399 72.2141 258.53 72.2141 255.373 74.6153 254.083 80.1292L270.936 80.1292Z" fill="#EB1000" transform="matrix(1.0068 0 0 1 2294.96 896.189)"/></g></g></g><path d="M2815 962.092 2814.99 963.111 2796.51 963.111C2796.1 957.483 2793.01 954.669 2787.22 954.669 2784.87 954.669 2783.06 955.178 2781.79 956.197 2780.53 957.213 2779.9 958.424 2779.9 959.84 2779.9 960.871 2780.41 961.85 2781.42 962.778 2782.44 963.707 2784.86 964.893 2788.66 966.337 2793.49 968.225 2797.41 970.006 2800.44 971.682 2803.46 973.362 2805.93 975.542 2807.85 978.226 2809.77 980.91 2810.73 984.25 2810.73 988.256 2810.73 992.024 2809.69 995.542 2807.61 998.795 2805.53 1002.05 2802.54 1004.74 2798.63 1006.84 2794.72 1008.95 2789.16 1010 2781.95 1010 2771.8 1010 2764.61 1008.03 2760.37 1004.08 2756.12 1000.13 2754 995.065 2754 988.879L2754 986.08 2772.57 986.093C2772.57 990.126 2773.45 992.98 2775.21 994.645 2776.97 996.305 2779.41 997.139 2782.52 997.139 2785.66 997.139 2788.05 996.444 2789.69 995.063 2791.33 993.678 2792.15 992.101 2792.15 990.334 2792.15 989.005 2791.63 987.787 2790.58 986.666 2789.54 985.546 2786.96 984.233 2782.86 982.731 2773.48 979.315 2767.54 976.161 2765.05 973.274 2762.57 970.387 2761.32 966.91 2761.32 962.845 2761.32 959.128 2762.35 955.743 2764.4 952.677 2766.45 949.616 2769.43 947.238 2773.33 945.542 2777.25 943.848 2781.93 943 2787.4 943 2804.7 943.001 2813.9 949.365 2815 962.092Z" fill="#747474" fill-rule="evenodd"/><path d="M2850.28 976.729C2848.99 974.296 2846.57 973.097 2842.94 973.097 2838.59 973.097 2835.24 974.87 2832.9 978.415 2830.57 981.965 2829.4 985.825 2829.4 990.001 2829.4 992.534 2830.23 994.474 2831.9 995.829 2833.56 997.184 2835.36 997.863 2837.29 997.863 2842.05 997.863 2845.61 995.244 2847.92 989.945L2865.09 989.836C2861.38 1003.74 2851.14 1010 2836.59 1010 2820.2 1010 2812 1003.25 2812 989.738 2812 981.881 2814.7 975.125 2820.11 969.478 2825.51 963.826 2833.12 961 2842.94 961 2849.98 961 2855.61 962.449 2859.81 965.348 2863.47 967.866 2865.85 971.52 2867 976.722L2850.28 976.729Z" fill="#747474" fill-rule="evenodd"/><path d="M2912.02 1009.89 2896.45 1009.89C2896.45 1009.89 2898.35 1003.62 2898.35 1003.55 2893.82 1007.69 2888.41 1010 2882.62 1010 2876.71 1010 2872.46 1008.62 2869.88 1005.85 2867.29 1003.08 2866 999.876 2866 996.229 2866 992.077 2867.15 988.914 2869.46 986.737 2871.76 984.559 2874.61 983.078 2877.99 982.301 2881.37 981.521 2885.98 980.835 2891.83 980.245 2897.03 979.688 2900.5 979.146 2902.23 978.616 2902.59 977.231 2902.76 976.172 2902.76 975.437 2902.76 974.26 2902.17 973.317 2900.98 972.611 2899.79 971.905 2898.21 971.55 2896.24 971.55 2894.18 971.55 2892.52 971.882 2891.23 972.546 2889.96 973.207 2888.83 974.6 2887.86 976.717L2870.58 976.729C2871.82 970.851 2874.72 967.036 2878.58 964.621 2882.45 962.21 2888.44 961 2896.55 961 2905.74 961 2911.96 962.157 2915.18 964.468 2918.39 966.776 2920 970.139 2920 974.556 2920 977.498 2919.2 982.338 2917.58 989.078L2912.02 1009.89ZM2900.25 987.929C2891.99 989.312 2887.14 990.534 2885.7 991.593 2884.26 992.653 2883.54 993.903 2883.54 995.347 2883.54 996.847 2884.06 998.029 2885.09 998.896 2886.11 999.768 2887.44 1000.2 2889.05 1000.2 2891.32 1000.2 2893.56 999.281 2895.78 997.441 2898 995.599 2899.49 992.429 2900.25 987.929Z" fill="#747474" fill-rule="evenodd"/><path d="M2950 943 2935.4 1010 2917 1010 2931.65 943 2950 943Z" fill="#747474" fill-rule="evenodd"/><path d="M2994.98 995.261C2992.07 1001.47 2988.22 1004.89 2984.04 1006.93 2979.85 1008.98 2974.61 1010 2968.32 1010 2959.17 1010 2952.65 1007.92 2948.79 1003.75 2944.93 999.59 2943 994.491 2943 988.459 2943 984.279 2943.91 980.345 2945.71 976.65 2947.52 972.957 2949.97 969.859 2953.06 967.357 2956.15 964.859 2959.2 963.172 2962.2 962.302 2965.2 961.436 2968.71 961 2972.74 961 2981.4 961 2987.6 962.9 2991.36 966.695 2995.13 970.49 2997 975.154 2997 980.687 2997 982.512 2996.61 985.646 2995.82 990.088L2960.45 990.088C2960.94 996.358 2963.73 999.492 2968.8 999.492 2972.24 999.492 2974.92 998.079 2976.96 995.257L2994.98 995.261ZM2979.34 981.395C2979.54 980.747 2979.64 979.85 2979.64 978.703 2979.64 976.317 2978.94 974.518 2977.52 973.295 2976.11 972.072 2974.36 971.46 2972.3 971.46 2970.11 971.46 2968.1 972.293 2966.26 973.956 2964.42 975.619 2963.03 978.096 2962.06 981.394L2979.34 981.394Z" fill="#747474" fill-rule="evenodd"/><path d="M3007.99 951.42C3008.58 949.8 3009.53 948.315 3010.85 946.976 3012.18 945.63 3013.84 944.631 3015.85 943.984 3017.85 943.339 3020.27 943.012 3023.09 943.012 3027.3 943.012 3039 943 3039 943L3035.85 954.515C3035.85 954.515 3030.98 954.521 3029.19 954.521 3027.86 954.521 3026.78 954.839 3025.96 955.472 3025.15 956.105 3024.38 958.426 3023.58 962.172L3032.53 962.172 3028.88 975.051 3020.87 975.051 3013.28 1010 2995 1010 3007.99 951.42Z" fill="#747474" fill-rule="evenodd"/><path d="M3056.75 961C3065.19 961 3071.34 963.121 3075.2 967.357 3079.07 971.596 3081 976.555 3081 982.234 3081 986.56 3079.89 990.962 3077.67 995.435 3075.45 999.908 3072.11 1003.46 3067.65 1006.07 3063.2 1008.69 3057.72 1010 3051.2 1010 3042.94 1010 3036.84 1007.97 3032.9 1003.93 3028.97 999.883 3027 994.842 3027 988.813 3027 984.077 3028.17 979.501 3030.53 975.084 3032.88 970.671 3036.29 967.22 3040.77 964.731 3045.23 962.246 3050.56 961 3056.75 961ZM3052.36 997.862C3055.73 997.862 3058.41 996.143 3060.4 992.718 3062.38 989.29 3063.37 985.489 3063.37 981.308 3063.37 978.274 3062.61 976.15 3061.1 974.927 3059.6 973.707 3057.92 973.097 3056.09 973.097 3052.27 973.097 3049.4 974.818 3047.49 978.262 3045.58 981.706 3044.63 985.223 3044.63 988.812 3044.63 991.404 3045.38 993.555 3046.87 995.281 3048.37 996.998 3050.19 997.862 3052.36 997.862Z" fill="#747474" fill-rule="evenodd"/><path d="M3102.96 971.434C3109.46 962.477 3108.1 962 3120 962L3116.84 975.799C3116.84 975.799 3114.13 975.795 3113.05 975.795 3109.64 975.795 3106.87 977.034 3104.75 979.515 3102.62 981.994 3100.97 985.965 3099.81 991.427L3095.83 1010 3078 1010 3088.19 962.021 3104.84 962.021 3102.78 971.276 3102.96 971.434Z" fill="#747474" fill-rule="evenodd"/><path d="M3169.31 968.965C3172.67 965.896 3175.74 963.803 3178.51 962.684 3181.29 961.563 3184.24 961 3187.38 961 3191.58 961 3194.74 962.128 3196.85 964.385 3198.95 966.643 3200 969.381 3200 972.593 3200 974.514 3199.81 976.37 3199.43 978.169L3192.5 1010 3174.56 1010 3179.17 988.968C3180.25 983.866 3180.85 980.823 3180.97 979.849 3181.08 978.878 3181.15 978.201 3181.15 977.816 3181.15 975.367 3180 974.146 3177.72 974.146 3175.07 974.146 3172.86 975.262 3171.12 977.508 3169.39 979.75 3168 983.289 3166.98 988.125L3162.24 1010 3144.3 1010 3148.82 989.32C3149.93 984.043 3150.56 980.91 3150.69 979.94 3150.82 978.966 3150.89 978.229 3150.89 977.728 3150.89 975.338 3149.69 974.146 3147.29 974.146 3145.48 974.146 3143.57 975.08 3141.56 976.955 3139.56 978.826 3138.08 982.007 3137.12 986.487L3131.98 1010 3114 1010 3124.31 962.066 3140.93 962.066 3139.48 968.788 3139.66 968.968C3144.77 963.656 3150.52 961.003 3156.89 961.003 3159.82 961.003 3162.4 961.696 3164.66 963.086 3166.9 964.467 3168.45 966.431 3169.31 968.965Z" fill="#747474" fill-rule="evenodd"/><path d="M3213.5 958C3209.36 958 3206 961.359 3206 965.501 3206 969.643 3209.36 973 3213.5 973 3217.65 973 3221 969.643 3221 965.501 3221 961.359 3217.65 958 3213.5 958ZM3213.5 971.334C3210.28 971.334 3207.67 968.723 3207.67 965.501 3207.67 962.279 3210.28 959.666 3213.5 959.666 3216.72 959.666 3219.33 962.279 3219.33 965.501 3219.33 968.723 3216.72 971.334 3213.5 971.334ZM3217.04 964.04C3217.04 963.624 3217.04 964.04 3217.04 963.624 3217.04 962.791 3216.21 961.334 3214.96 961.334 3213.71 961.334 3209.75 961.334 3209.75 961.334L3209.75 969.668 3211.83 969.668 3211.83 966.334 3212.46 966.334 3215.17 969.668 3217.46 969.668 3214.75 966.334C3216 966.334 3217.04 964.875 3217.04 964.04ZM3214.13 964.668C3213.92 964.668 3211.83 964.668 3211.83 964.668L3211.83 963.001C3211.83 963.001 3213.92 963.001 3214.13 963.001 3214.54 963.001 3214.96 963.414 3214.96 963.835 3214.96 964.247 3214.54 964.668 3214.13 964.668Z" fill="#747474" fill-rule="evenodd"/><path d="M2727.13 940.003C2724.63 940.003 2718.42 943.753 2717.17 950.002 2715.93 956.253 2710.95 986.253 2709.7 995.001 2708.47 1003.75 2697.27 1015 2684.83 1015 2672.39 1015 2650 1015 2650 1015L2652.48 990C2652.48 990 2671.14 990 2674.88 990 2678.61 990 2683.58 986.253 2684.83 980.003 2686.07 973.75 2691.05 943.753 2692.29 934.999 2693.53 926.252 2704.74 915 2717.17 915 2729.61 915 2752 915 2752 915L2747.96 940.003C2747.96 940.003 2729.61 940.003 2727.13 940.003Z" fill="url(#fill1)" fill-rule="evenodd"/><path d="M2726.16 955 2722 980 2741.84 980 2746 955Z" fill="url(#fill2)" fill-rule="evenodd"/></g></svg>