<svg width="742" height="225" xmlns="http://www.w3.org/2000/svg" xmlns:xlink="http://www.w3.org/1999/xlink" xml:space="preserve" overflow="hidden"><defs><clipPath id="clip0"><rect x="171" y="247" width="742" height="225"/></clipPath><clipPath id="clip1"><rect x="373" y="285" width="432" height="55"/></clipPath><clipPath id="clip2"><rect x="373" y="285" width="432" height="55"/></clipPath></defs><g clip-path="url(#clip0)" transform="translate(-171 -247)"><path d="M2103.85 952.921 2099.46 953.081C2095.51 953.267 2092.67 953.958 2090.94 955.154 2089.21 956.351 2088.35 958.225 2088.35 960.777 2088.35 965.084 2090.41 967.238 2094.55 967.238 2097.42 967.238 2099.69 966.247 2101.35 964.267 2103.01 962.286 2103.85 959.741 2103.85 956.63ZM2237.8 937.966C2230.02 937.966 2226.12 942.765 2226.12 952.363 2226.12 957.068 2227.08 960.67 2228.98 963.169 2230.89 965.669 2233.65 966.918 2237.28 966.918 2245.1 966.918 2249.02 962.067 2249.02 952.363 2249.02 942.765 2245.28 937.966 2237.8 937.966ZM2163.22 937.527C2160.51 937.527 2158.35 938.485 2156.74 940.398 2155.13 942.313 2154.26 944.958 2154.12 948.335L2172.08 948.335C2171.81 944.719 2170.98 942.014 2169.58 940.22 2168.19 938.424 2166.06 937.527 2163.22 937.527ZM2488.71 932.024 2498.7 932.024 2508.23 946.978 2517.69 932.024 2527.8 932.024 2513.46 951.765 2528.68 972.9 2518.58 972.9 2508.23 957.307 2497.81 972.9 2487.99 972.9 2503 951.884ZM2320.28 931.186C2326.75 931.186 2330.83 934.097 2332.52 939.92L2332.8 939.92C2334.25 936.916 2336.02 934.709 2338.1 933.3 2340.17 931.891 2342.86 931.186 2346.16 931.186 2350.59 931.186 2353.9 932.516 2356.1 935.174 2358.3 937.833 2359.41 941.994 2359.41 947.657L2359.41 972.9 2350.11 972.9 2350.11 950.049C2350.11 945.902 2349.5 942.925 2348.27 941.116 2347.05 939.309 2345.11 938.405 2342.46 938.405 2339.64 938.405 2337.43 939.528 2335.8 941.775 2334.18 944.021 2333.37 947.111 2333.37 951.046L2333.37 972.9 2324.07 972.9 2324.07 950.049C2324.07 945.822 2323.47 942.825 2322.28 941.056 2321.08 939.289 2319.18 938.405 2316.58 938.405 2313.74 938.405 2311.48 939.548 2309.82 941.834 2308.15 944.121 2307.32 947.271 2307.32 951.286L2307.32 972.9 2298.07 972.9 2298.07 941.436C2298.07 938.271 2297.95 935.135 2297.71 932.024L2306.52 932.024C2306.81 936.012 2306.96 938.644 2306.96 939.92L2307.12 939.92C2308.68 936.783 2310.47 934.543 2312.51 933.201 2314.55 931.858 2317.14 931.186 2320.28 931.186ZM2287.32 931.186C2288.58 931.186 2289.63 931.359 2290.46 931.705L2290.46 939.243C2289.09 938.95 2287.69 938.804 2286.24 938.804 2283.23 938.804 2280.83 940.113 2279.03 942.732 2277.23 945.35 2276.33 948.88 2276.33 953.319L2276.33 972.9 2267.08 972.9 2267.08 942.113C2267.08 937.806 2266.99 934.443 2266.8 932.024L2275.61 932.024C2275.88 935.214 2276.01 938.298 2276.01 941.276L2276.17 941.276C2277.46 937.5 2278.95 934.875 2280.64 933.4 2282.33 931.924 2284.56 931.186 2287.32 931.186ZM2237.6 931.186C2244.48 931.186 2249.73 933.001 2253.33 936.63 2256.92 940.26 2258.72 945.503 2258.72 952.363 2258.72 959.036 2256.85 964.26 2253.11 968.035 2249.36 971.811 2244.11 973.698 2237.36 973.698 2230.81 973.698 2225.68 971.784 2221.98 967.956 2218.27 964.127 2216.42 958.93 2216.42 952.363 2216.42 945.69 2218.28 940.492 2222 936.77 2225.71 933.048 2230.91 931.186 2237.6 931.186ZM2163.54 931.186C2169.42 931.186 2173.92 933.094 2177.03 936.91 2180.13 940.724 2181.69 946.115 2181.69 953.081L2181.69 954.197 2154.04 954.197C2154.18 958.371 2155.11 961.581 2156.84 963.828 2158.57 966.075 2160.94 967.198 2163.94 967.198 2165.98 967.198 2167.8 966.692 2169.4 965.683 2171 964.672 2172.44 962.97 2173.73 960.578L2181 964.047C2179.42 966.572 2177.84 968.487 2176.26 969.789 2174.68 971.093 2172.83 972.07 2170.73 972.721 2168.62 973.372 2166.12 973.698 2163.22 973.698 2157.18 973.698 2152.53 971.817 2149.25 968.055 2145.98 964.293 2144.35 959.009 2144.35 952.203 2144.35 945.344 2146.06 940.127 2149.49 936.551 2152.93 932.975 2157.61 931.186 2163.54 931.186ZM2097.12 931.186C2102.62 931.186 2106.66 932.476 2109.22 935.055 2111.78 937.634 2113.05 941.635 2113.05 947.058L2113.05 972.9 2104.13 972.9 2103.81 966.44C2102.44 969.099 2100.79 970.973 2098.85 972.063 2096.92 973.153 2094.55 973.698 2091.73 973.698 2087.49 973.698 2084.25 972.607 2082.01 970.428 2079.77 968.248 2078.65 965.217 2078.65 961.336 2078.65 957.081 2080.18 953.825 2083.23 951.565 2086.29 949.305 2090.8 948.082 2096.76 947.896L2103.81 947.657 2103.81 946.381C2103.81 943.217 2103.29 940.923 2102.26 939.502 2101.22 938.079 2099.47 937.367 2097 937.367 2094.83 937.367 2093.22 937.773 2092.19 938.584 2091.16 939.395 2090.45 940.651 2090.08 942.353L2081.15 940.957C2081.95 937.474 2083.63 934.975 2086.19 933.46 2088.76 931.944 2092.4 931.186 2097.12 931.186ZM2059.3 931.186C2068.67 931.186 2074.04 935.427 2075.41 943.908L2066.15 944.666C2065.85 942.406 2065.09 940.711 2063.87 939.581 2062.65 938.451 2061.16 937.886 2059.38 937.886 2056.35 937.886 2054.13 939.07 2052.72 941.436 2051.31 943.801 2050.61 947.417 2050.61 952.283 2050.61 957.228 2051.34 960.923 2052.8 963.369 2054.26 965.815 2056.35 967.038 2059.06 967.038 2063.11 967.038 2065.53 964.526 2066.31 959.501L2075.33 960.458C2073.88 969.285 2068.43 973.698 2058.98 973.698 2053.32 973.698 2048.95 971.864 2045.89 968.195 2042.81 964.526 2041.28 959.355 2041.28 952.682 2041.28 945.822 2042.85 940.525 2045.99 936.79 2049.12 933.055 2053.56 931.186 2059.3 931.186ZM2620.63 923.131C2616.87 923.131 2614.21 924.786 2612.66 928.096 2611.1 931.406 2610.32 936.969 2610.32 944.785 2610.32 952.336 2611.11 957.826 2612.7 961.256 2614.28 964.685 2616.87 966.4 2620.47 966.4 2624.01 966.4 2626.59 964.659 2628.22 961.176 2629.83 957.693 2630.64 952.23 2630.64 944.785 2630.64 939.548 2630.31 935.361 2629.64 932.223 2628.97 929.086 2627.92 926.787 2626.48 925.324 2625.05 923.862 2623.1 923.131 2620.63 923.131ZM2693.98 916.711 2725.94 916.711 2725.94 924.208 2702.11 924.208 2701.14 939.761C2703.9 937.527 2707.51 936.411 2711.97 936.411 2717.28 936.411 2721.48 938.019 2724.55 941.236 2727.61 944.453 2729.15 948.84 2729.15 954.396 2729.15 960.405 2727.36 965.124 2723.79 968.554 2720.2 971.984 2715.24 973.698 2708.91 973.698 2703.65 973.698 2699.46 972.509 2696.33 970.129 2693.21 967.749 2691.23 964.233 2690.4 959.581L2699.65 958.743C2700.19 960.79 2700.85 962.306 2701.62 963.289 2702.4 964.273 2703.42 965.031 2704.68 965.563 2705.94 966.094 2707.49 966.36 2709.31 966.36 2712.67 966.36 2715.23 965.35 2717 963.329 2718.77 961.309 2719.66 958.398 2719.66 954.596 2719.66 951.272 2718.8 948.654 2717.08 946.74 2715.37 944.825 2712.96 943.868 2709.88 943.868 2708.13 943.868 2706.58 944.134 2705.21 944.666 2703.84 945.197 2702.44 946.168 2701.02 947.577L2692.17 947.577ZM2453.54 916.711 2485.17 916.711 2485.17 924.486 2463.32 924.486 2463.32 941.515 2484.25 941.515 2484.25 949.053 2463.32 949.053 2463.32 972.9 2453.54 972.9ZM2664.86 915.873C2670.66 915.873 2675.18 917.236 2678.41 919.961 2681.65 922.686 2683.26 926.534 2683.26 931.505 2683.26 933.846 2682.8 936.032 2681.87 938.066 2680.95 940.1 2679.61 942.107 2677.87 944.087 2676.12 946.068 2673.28 948.627 2669.33 951.765 2662.46 957.161 2658.19 961.641 2656.5 965.204L2684.15 965.204 2684.15 972.9 2645.99 972.9 2645.99 966.48C2647.34 963.396 2649.24 960.365 2651.71 957.387 2654.18 954.41 2657.48 951.219 2661.6 947.816 2666.57 943.721 2669.85 940.558 2671.45 938.325 2673.04 936.092 2673.84 933.926 2673.84 931.824 2673.84 929.113 2673.08 927.02 2671.55 925.544 2670.02 924.069 2667.86 923.331 2665.07 923.331 2659.71 923.331 2656.65 926.188 2655.9 931.904L2646.56 931.266C2647.12 926.428 2648.99 922.652 2652.17 919.941 2655.35 917.229 2659.59 915.873 2664.86 915.873ZM2620.63 915.873C2627.2 915.873 2632.06 918.239 2635.23 922.971 2638.4 927.703 2639.98 934.975 2639.98 944.785 2639.98 954.223 2638.34 961.402 2635.05 966.32 2631.76 971.239 2626.88 973.698 2620.39 973.698 2607.48 973.698 2601.02 964.06 2601.02 944.785 2601.02 938.112 2601.74 932.649 2603.18 928.395 2604.61 924.142 2606.72 920.991 2609.52 918.943 2612.31 916.897 2616.01 915.873 2620.63 915.873ZM2575.58 915.873C2581.37 915.873 2585.89 917.236 2589.12 919.961 2592.36 922.686 2593.97 926.534 2593.97 931.505 2593.97 933.846 2593.51 936.032 2592.58 938.066 2591.66 940.1 2590.32 942.107 2588.58 944.087 2586.83 946.068 2583.99 948.627 2580.04 951.765 2573.17 957.161 2568.89 961.641 2567.2 965.204L2594.86 965.204 2594.86 972.9 2556.7 972.9 2556.7 966.48C2558.05 963.396 2559.95 960.365 2562.42 957.387 2564.88 954.41 2568.18 951.219 2572.31 947.816 2577.28 943.721 2580.56 940.558 2582.16 938.325 2583.75 936.092 2584.55 933.926 2584.55 931.824 2584.55 929.113 2583.79 927.02 2582.26 925.544 2580.73 924.069 2578.57 923.331 2575.78 923.331 2570.41 923.331 2567.35 926.188 2566.6 931.904L2557.27 931.266C2557.83 926.428 2559.7 922.652 2562.88 919.941 2566.05 917.229 2570.29 915.873 2575.58 915.873ZM2417.85 915.873C2423.52 915.873 2428.17 916.983 2431.82 919.203 2435.47 921.423 2438.13 924.806 2439.82 929.352L2430.82 932.064C2428.72 926.428 2424.36 923.61 2417.73 923.61 2412.63 923.61 2408.76 925.411 2406.12 929.013 2403.47 932.616 2402.16 937.793 2402.16 944.546 2402.16 951.299 2403.57 956.563 2406.4 960.338 2409.23 964.114 2413.17 966.002 2418.22 966.002 2423.45 966.002 2427.81 964.353 2431.3 961.056L2431.3 951.166 2417.93 951.166 2417.93 944.027 2440.47 944.027 2440.47 964.526C2437.97 967.317 2434.75 969.543 2430.78 971.206 2426.8 972.867 2422.59 973.698 2418.14 973.698 2409.92 973.698 2403.55 971.139 2399.04 966.022 2394.52 960.903 2392.26 953.745 2392.26 944.546 2392.26 935.294 2394.47 928.202 2398.9 923.271 2403.33 918.339 2409.64 915.873 2417.85 915.873ZM2015.23 915.873C2020.59 915.873 2024.78 916.93 2027.8 919.043 2030.82 921.156 2032.9 924.473 2034.06 928.993L2024.84 930.629C2023.63 925.497 2020.4 922.932 2015.15 922.932 2012.44 922.932 2010.35 923.59 2008.89 924.905 2007.42 926.222 2006.69 928.049 2006.69 930.389 2006.69 932.011 2007.02 933.347 2007.68 934.397 2008.34 935.447 2009.32 936.358 2010.64 937.129 2011.95 937.899 2014.49 938.857 2018.24 940 2022.64 941.356 2025.78 942.546 2027.66 943.57 2029.54 944.592 2031.03 945.73 2032.13 946.978 2033.23 948.229 2034.06 949.678 2034.62 951.326 2035.19 952.974 2035.47 954.888 2035.47 957.068 2035.47 962.439 2033.74 966.552 2030.29 969.411 2026.85 972.269 2021.86 973.698 2015.35 973.698 2009.6 973.698 2005.09 972.462 2001.8 969.989 1998.51 967.517 1996.37 963.781 1995.38 958.783L2004.48 957.228C2005.79 963.316 2009.58 966.36 2015.83 966.36 2022.64 966.36 2026.05 963.449 2026.05 957.627 2026.05 955.952 2025.71 954.583 2025.04 953.519 2024.37 952.456 2023.44 951.565 2022.26 950.847 2021.08 950.13 2019.69 949.525 2018.1 949.033 2016.5 948.541 2014.8 948.029 2012.97 947.497 2008.57 946.248 2005.38 944.945 2003.41 943.589 2001.44 942.233 1999.92 940.531 1998.86 938.485 1997.8 936.438 1997.27 933.885 1997.27 930.828 1997.27 926.122 1998.86 922.453 2002.02 919.821 2005.19 917.189 2009.59 915.873 2015.23 915.873ZM2126.35 914.915 2135.61 914.915 2135.61 972.9 2126.35 972.9ZM2207.43 914.716C2210.21 914.716 2212.6 914.889 2214.58 915.235L2214.58 921.376C2213.4 921.083 2211.64 920.938 2209.32 920.938 2207.44 920.938 2206.09 921.449 2205.25 922.473 2204.42 923.497 2204.01 925.391 2204.01 928.155L2204.01 932.024 2212.93 932.024 2212.93 938.684 2204.01 938.684 2204.01 972.9 2194.75 972.9 2194.75 938.684 2187.5 938.684 2187.5 932.024 2194.75 932.024 2194.75 926.88C2194.75 922.732 2195.79 919.668 2197.89 917.688 2199.98 915.707 2203.16 914.716 2207.43 914.716Z" fill="#FFFFFF" fill-rule="evenodd" transform="matrix(1 0 0 1.00031 -1620.44 -538)"/><g clip-path="url(#clip1)"><g clip-path="url(#clip2)"><path d="M526.338 1.4107 510.755 1.4107 492.091 22.2527 492.091 1.4107 479.008 1.4107 479.073 52.716 492.091 52.716 492.091 33.2197 509.793 52.716 526.338 52.716 502.483 27.3852 526.338 1.4107ZM457.912 22.5095 445.983 21.1638C438.991 20.3934 437.262 18.6609 437.262 16.2881 437.262 13.6585 440.854 11.2856 447.842 11.2856 454.577 11.2856 458.104 13.7885 458.745 17.572L471.571 17.572C470.921 6.73171 461.82 0 448.548 0 432.773 0 424.819 6.28315 424.819 17.377 424.819 26.4198 430.079 30.6551 440.981 31.809L453.102 33.0897C457.721 33.6033 459.837 35.4008 459.837 37.7086 459.837 40.3383 456.759 42.7111 449.318 42.7111 440.724 42.7111 437.262 40.53 436.684 36.1679L424.114 36.1679C424.693 47.9704 432.387 53.9967 448.87 53.9967 463.939 53.9967 472.341 47.3918 472.341 37.4519 472.341 28.7926 467.339 23.5984 457.912 22.5095ZM377.041 52.716 418.341 52.716 418.341 41.6222 390.124 41.6222 390.124 32.3226 412.825 32.3226 412.825 21.1638 390.124 21.1638 390.124 12.5045 418.341 12.5045 418.341 1.4107 377.041 1.4107 377.041 52.716ZM346.259 1.4107 322.274 1.4107 322.274 52.716 346.259 52.716C364.666 52.716 369.731 45.8543 369.731 26.6766 369.731 8.65599 364.858 1.4107 346.259 1.4107ZM345.732 41.6254 335.331 41.6254 335.331 12.5045 345.732 12.5045C353.943 12.5045 356.378 14.7506 356.378 26.6766 356.391 37.5786 353.634 41.6254 345.732 41.6254ZM286.746 0C268.082 0 258.399 11.4774 258.399 26.9333 258.399 42.4543 268.082 53.9967 286.746 53.9967 305.472 53.9967 315.155 42.4543 315.155 26.9333 315.155 11.4774 305.472 0 286.746 0ZM286.746 42.4543C277.063 42.4543 271.739 36.5547 271.739 26.9333 271.739 17.507 277.063 11.5424 286.746 11.5424 296.498 11.5424 301.754 17.507 301.754 26.9333 301.754 36.5547 296.494 42.4543 286.746 42.4543ZM210.172 12.5045 226.717 12.5045 226.717 52.716 239.8 52.716 239.8 12.5045 256.283 12.5045 256.283 1.4107 210.172 1.4107 210.172 12.5045ZM191.127 33.0897C191.127 39.7597 187.022 42.4543 180.03 42.4543 173.234 42.4543 168.81 39.6329 168.81 33.0897L168.81 1.4107 155.727 1.4107 155.727 34.5654C155.727 49.3811 168.936 53.9967 180.03 53.9967 191.062 53.9967 204.207 49.3811 204.207 34.5654L204.207 1.4107 191.127 1.4107ZM117.439 1.4107 97.7512 52.716 111.283 52.716 114.719 43.0947 136.698 43.0947 140.079 52.716 154.056 52.716 134.127 1.4107ZM118.613 32.1926 125.799 12.082 132.866 32.1991ZM0.403058 52.7193 46.3451 24.1412 70.1775 24.1412C70.9459 24.1412 71.5687 24.7641 71.5687 25.5324 71.5687 25.5335 71.5687 25.5346 71.5687 25.5356 71.6074 26.021 71.3513 26.4822 70.9186 26.7058L48.3539 40.2342C46.888 41.1119 46.3744 42.8736 46.3744 44.1933L46.3516 52.7193 75.0272 52.7193 75.0272 3.1692C75.0298 2.19801 74.2448 1.40854 73.2736 1.40587 73.2469 1.40579 73.2206 1.40632 73.194 1.40745L45.8316 1.40745 0 29.862 0 52.7193Z" fill="#FFFFFF" transform="matrix(1.00256 0 0 1 276.957 286)"/></g></g><path d="M1574.47 579.104 1443.19 579.104C1429.89 579.104 1419.1 568.318 1419.1 555.011L1419.1 434.544 1574.47 434.544Z" fill="#215F9A" fill-rule="evenodd" transform="matrix(1 0 0 1.00298 -1232.31 -137.166)"/><path d="M1430.73 413.765 1562.01 413.765 1562.01 545.04 1430.73 545.04Z" fill="#4E95D9" transform="matrix(1 0 0 1.00298 -1232.31 -137.166)"/><text fill="#FFFFFF" font-family="DengXian,DengXian_MSFontService,sans-serif" font-weight="700" font-size="128" transform="matrix(0.830853 0 0 0.833333 235.29 380)">S</text><path d="M1407.81 427.309 1430.73 413.765 1430.73 544.786 1407.46 563.318C1407.58 517.981 1407.7 472.645 1407.81 427.309Z" fill="#A6CAEC" fill-rule="evenodd" transform="matrix(1 0 0 1.00298 -1232.31 -137.166)"/><text fill="#FFFFFF" font-family="DengXian,DengXian_MSFontService,sans-serif" font-weight="700" font-size="32" transform="matrix(0.830853 0 0 0.833333 240.828 434)">GFX</text></g></svg>